/* XPM */
static char *result[] = {
/* columns rows colors chars-per-pixel */
"75 75 68 1 ",
"  c #7F3722",
". c #7D3E24",
"X c #7D4024",
"o c #774B25",
"O c #784B25",
"+ c #6D5E28",
"@ c #735527",
"# c #715827",
"$ c #785328",
"% c #755B29",
"& c #7E5E2B",
"* c #5E7D2B",
"= c #6B6428",
"- c #686829",
"; c #71662B",
": c #7C662C",
"> c #716A2B",
", c #63742B",
"< c #6C742D",
"1 c #79702F",
"2 c #823623",
"3 c #803A23",
"4 c #814526",
"5 c #824728",
"6 c #8A452B",
"7 c #874C2B",
"8 c #884D2B",
"9 c #85522C",
"0 c #805F2D",
"q c #3FB933",
"w c #5D802B",
"e c #58892D",
"r c #53922E",
"t c #50992F",
"y c #539B30",
"u c #6B8A2C",
"i c #6E8E32",
"p c #619733",
"a c #629F36",
"s c #46A52F",
"d c #56B52D",
"f c #47A730",
"g c #49A631",
"h c #46AB31",
"j c #48A831",
"k c #56A033",
"l c #5DA636",
"z c #51AF36",
"x c #5FAB39",
"c c #43B132",
"v c #53B137",
"b c #58B731",
"n c #55BB30",
"m c #5ABD34",
"M c #5EB53B",
"N c #51B938",
"B c #5CBB3D",
"V c #61A337",
"C c #62A538",
"Z c #61A83B",
"A c #60BD3F",
"S c #5EC43E",
"D c #61BE40",
"F c #5EC541",
"G c #5DCB43",
"H c #61C240",
"J c #6AC446",
"K c #6ECB4A",
/* pixels */
"KKZygjjjjjjjjjjjjjjjjjjjjjjjjjjjvAAAAAADAAAAAAADBjjjjjjjfjjjjjjjjjjjjhgrZJJ",
"KksjjjjjjjjjjjjjjjjjjjjjjjfjjjjsvAAAAAAAAAAAAAADBjjjjjjjjjfjjjjjjjjjjjjhjyJ",
"ZsjjjjjjjjjjjjjjjjjjjjjjjjjjjjjsvAAAAAAAAAAAAAADBjjjjjjjjjjjjjjjjfjjjjjjjfl",
"yhjjjjjjjjjjjjjjjjjjjjjjjjjjjjjfvAAAAAAAAAAAAAADBjjjjjjjjjjjjjjfjjjjjjjjjht",
"jjjjjjjjjjjjjjjjjjjjjjjjjjjjjfjfvAAAAADAAAAAAAADBjjjjjjjjjjjjjjjjjjjjjhjjjj",
"jjjjjjjjjjjjjjjjjjjjjjjjjjjjjjjfvAAAAAAAAAAAAAADBjjjjjjjfjjjjjfjjjjjjjjjjjj",
"jfjjfjjjjjjjjjjjjjjjjjjjfjjjjjjfvDADAAAAAAAAAAADBjjjjjjjjjjjjjjjjjjjjjjjjjj",
"jjjjjjjjjjzjjjjjzjjjjjjjjjjjjjjfbDAAAAAAAAAAAAADBgjjjjjjjjjjfffffffjfsssfff",
"jjjvBMBBABBBBBBBBBBvjjjjjjjjjjjfvDDADAAAAAAAAAADBjjfjjjjjjfjzzvzvvvvvvvvvvv",
"jjfvDDDDDADDAADAFADBjjjjjjjjjjjfvDAADDAAAAAADDADBjjjjjjfjjfBAAAAAABAABAAAAA",
"jjfvDDAAAAAAAAAAAAAMjjjjjfjjjjjjjzzzjvzzzzvzjvzzzjjjjfjjjjfBAAAAAAAAAAAAAAA",
"jjfvDAAAAAAAAAAAAAABjjjjjjjfjjjjjfsjffffhsfffffffjjjjjjjjjfMDAAAAAAAAAAAAAA",
"jjfvDAAAAAAAAAAAAADBjjjjjjjjjfjjjjjjjjjjfhfjjjjjjjjjjjjjjjgMDAAAAAAAAAAAAAA",
"jjjvDAAAAAADAAAAADDMjjjjjjjjjjjjjjjjjjjjjjjjjjjjjfjjjjjjfhfDHADDDAAAAAAAAAA",
"jjjvDAAAAAASABAAHDDBgjjjjjjjjjjjjjjjjjjfjfjfjjjjjjjjjjjt***yalaaVlAAAAAAAAA",
"jjjvDAAAADM<;>>>=>>;@@@=jjjfjjjjj*@@@@@@@@@@@*hjjjjfjjc, X.X.XXXXXMDAAAAAAA",
"jjjvDAAAAHCO3.3X.3.X.33Ogjjjjjjjj-3X..3.....3+hgjjjfjgc,3XXXXXXX.XMAAAAAABA",
"jjjvDAAAASCo.XXXXXXXXX3Ojfjjjjjjj-3XXXXXXXXX.=hgggggggh,3XXXXXXX.XAAAAAAAAA",
"jjfvDAAAADCO.XXXXXXXXX.Xjjhjjjjjj-3XXXXXXXXX3=qccchcccc,3XXXXXXXXOAAAAAAAAA",
"jjjvDAAAADCO.XX.XXXXXXXOjhhjfhjhh-3XXXXXXXX..O,,,,,,,,,@3XXXXXXXXXZAAAAAAAA",
"jjjvDAAAAHCO.XXXXXX.XX.Xerrrrrrrr#.XXXXXXXXXX. 3.333323.XXXXXXXX.XAADBAAAAA",
"ggjvDAAAAHCO.X.X.XXX.XXXXXXXXXXXXXXXXXX.X.XXXXXXX.XXX.XXXXXX.XXX.OMADDDDAAA",
"hchNFFFFHGVO.XXXXXXXXXXXXXXXXXXXXXXXX.XXXXX.XXXXXXXX.XXXXXXXXX.XXXZBBBAABBB",
"###%%%%%%%$XXXXXXXXXXXXXXXXXXX.XXXX.XXX.XXXXX.XXXX.XXXX.XXX5X5XXXX$%%%@@%%%",
"..33.  .  ..XXX5555555XXXXXXXXXX.X.X555555XXXXXXXX.XXX.XX587775XXX.. ...3..",
"XXXXXXXXXXXXXX788777775XXXXXXXXXXXXX5877777XXX.XXXXXXXXXX577775XXX.XX.XX.XX",
"XXXXXX.XX.XXX.777777775XXXXXXXXXX.XX7777777XXXXXX.XXX.XXX577775XX.XXXXXX.XX",
"XXX.XXXXXXXX..577777775.XXXXXXXXXXXX5777777X.X.X.XX.X...X587785XXXX..XXX.X.",
"X.XXXXXXXX.XX.777777785.X.XXXXXXXX.X577777755555X55555555777795XXXXXXXXXXXX",
"XXXXX.XXXXXXXX787777787XXX5XXX5X4X4X777777787888978788787777775X.XXXX.XXXXX",
"XXXXXXXX.XXXXXO877777777877787777777777777777777777777777777775XXXXXXXXXXX.",
".X...X..X..X..5877777787777887777777777777777777777777777777777.X..X...X.X.",
"X777X777X777X77777787777777777777778777777877777777777777877777755757557577",
"877887788778877777777787777777777777777777777787777777777777787788888887887",
"887788878877887777777777787777877777777777777777877777777777777777778877777",
"887788778877889777777777777787777777777777777777777777787777777777878877777",
"777777778777777778777777777777777777877787777777777877777777777777777777777",
"787777777777777777778777777777777777777789777777777777777777777777777778777",
"77777778777777777777777777777777777775555X555777777777777777777777877777777",
"7777777777777877777777777787787777777XXX.XXX.587777777777777777777777777777",
"7777778777777777787877777777777777775XXXXXXXX577877778777777777877777777787",
"8777777778777777777777777777787777777XXXXXXX.587777777777777777778777777777",
"7777777777777777777777777778777777775XXXXXXXX587777777778777777777777777777",
"7777777777777877777778777777777777777XXXXX.XX587777777777777777777777877877",
"7777777887777777777777777777777777777XXXXXXXX587777777777777777787777877778",
"7787777777777777777777777777777777777XXXX.XX.577777778777787777877777778777",
"7777777777778777777877777777778777777XXXXXXXX577777777777777777777777777877",
"777777777777778888888888777877777777757777757777778777777777777777778777777",
"777778777777777777X777X7777777877777777777777777777777777777777778777777777",
"777777777778777...XX...7777777777777777777777777777777777777777877777778777",
"77877777777777XXXX.X.X.7777778787777777797787777787777777777777777777777777",
"777777777777777.XXXX..XO777777777777777777777787777777777777787777777777777",
"777777777777777.X.XXXXXX777777777777777777877777778777778888777777777777878",
"77777777777777$.XXXXXXX7777777777777777777777777777777778888878777777777777",
"777777777787776.XXXXXX.X77777778777777777777777777777775XXXX5XX577777777777",
"778777787777777.X.XXXX.777777777777777777777777877777775XXX.XXXX77777777877",
"778777787777777........X7777777777777877777877777777888XXXXXXX.X77777777777",
"777777778777777777$6777778777787777777777777777777878885.XXX.XXX77777777778",
"7777777777777777777777777777777777977777777777777777878X.XXXXXXX77777777877",
"77777777777777777877777777777777778777777777777777777785XXX.XXXX78777777777",
"7777777777777777777877777777777777787787777877777778777XXXXXXXXX77777877777",
"7787777777777777877778777777777777777777777777777777777X.XXXXXXX77777777777",
"777777777777777777777777777887777777777777787778777777775X5XXXX778777777777",
"777777777777777777877877777777777777777777777777777777788888988877777777778",
"777777777777777777777777777877777777777777777777777877777777777777777777787",
"777777777877777777777778777777777877777777777778777777777877777777777777777",
"778777787777777777777777777777777777777777777777777777777777777777777777777",
"777777777777777877877777777777777777778777787777777777777777778777787787877",
"777777777777778777777777777787777777778777777777777787777777777877777777777",
"777777777777777777787787777777777777777777777778777777777777777777777777777",
"778877777877777777777777777777777877777777787777777777777877777778777777777",
"07977778777777777777777777877777777777777777777777877777777777777777787776:",
"i6777787777777777777777777777777777778777787777777777877777777777777777776i",
"B1677777777777777787787787777778787777777777778778777777777777777777777871z",
"FBi:$877777777877887778777777777777777778777877777777777777777787777779:ivv"
};
