/* XPM */
static char *result[] = {
/* columns rows colors chars-per-pixel */
"75 75 22 1 ",
"  c #54BA2E",
". c #56BD33",
"X c #59BE35",
"o c #56BF38",
"O c #5ABF38",
"+ c #57C035",
"@ c #59C137",
"# c #57C138",
"$ c #5CC33B",
"% c #60C43E",
"& c #5FC640",
"* c #5FC841",
"= c #62C642",
"- c #69C746",
"; c #64C945",
": c #69C946",
"> c #69C748",
", c #66CA49",
"< c #6ACC4C",
"1 c #70CE4E",
"2 c #6DCD51",
"3 c #70CE52",
/* pixels */
"<11<1,11<11,111,<11<111132212232<1<12<11<>>:<::::::::>::1:>::>::-----------",
"<1<1,11,1<11,1112122<11<333222222<<<2<<,<<>::::;,:,,:>:::;:>::::----1------",
"1<1<1111%11,1<,1<12<1222<<222<2222<<1<<<,<>,:;:,<%%<;;:>;;:>:>:%-----------",
"1<1<,1,,111<1<1<<222222<<2222222<<2<<2<<<,,,;:;::;;:;;::>:=%:%:;-----------",
",:,<<,,1<<211,1,2222,222<222<<22<2<221<<2>,,,-,,::%:;;::>>>>;:=>-O---------",
",,:,<1,<<<<1,122<2<2222<22<2<22,222<<2<<<,,>-,,-;%;;;;;:;%;=:=>%------%--O-",
",,11<,,<<<1<,<,12<<<<<2<<2222222<<<2<222>-,-,-,,,::;%;%%;%;-=:;%%%--%-%---%",
",<<,<<111,,,<<2<<<2<<2,22<222<,2<2<<<2<,<<,,,,=,:;;;;%;%=:>%=%;;-%%--O-%-%-",
"2<<1<,<,<1<,<<<<22222<2222,,,,,2<,,<,<,<<,,2<<--==-==-==%=%-%%-=%%-%-%-%%-%",
",,<*<2<,<<<<<22<<2<<22,,2,,222,,<<<<<,<,,<<,>>-,>=,=,====%%-%=-=-%%--%%%--O",
"<,2,<2,2<<<<<<<<2<,2<2,,,,,2,2,,,,,,<<,,<,2,,;>,-,>====>%%%===-%%%%%%O-%O%-",
"<,,,<<2<<<<<22<<2,<22,222222*,2,2,22<,<,,<*,,><,,=>==>=>-==-%===-%-%%%-%O-%",
"*<*12<<,<<2<<<<2,,2,2*2*,,,2222,,22,<<<,<,,;,,,>,>==>==>=--=%===%-%%%--O--%",
"<<1*<<<<,<<<<<<<2,,,,22,222**2,2,,,22<<<<<,<,,-;,=>==>>=-==%-==-%--%-%O-O-%",
",<<<<<<<<,<<<<,<,,,2,222,22,2,,222,,<<*,,,,,,,,;,,,=======-=%==--%-%%%-O-%%",
",,,,,,,,,<,<<,<<2,,,,,*2222,<2,,,*,,<,,<<,,<,,,,,,>===>-%-=%-%%%%%%%%--O%%%",
"*1<*<,,,<*1,<<,<<<<2<<2*,,,,<,*2,,,,,>>,,,,,,&,,==;;&>>>=>===&==%>====%%%-%",
"<,<<1,,,<*<,<<,,2<22<,<2,22,<<2*,,,,,,,,,,>,,,>,>,>;>=&=====&>&>=%=%%=%%O%%",
"*<<*,,1,,<<<,,,2<,<,*<2,,,2,*,2,,,,2,,,,>>,,,,,&,>&>>>=>======&=%-=-%-%=%%%",
"<*<<,,,<<,,,,<<,,<,,2<*<<2*,<<,,>,>,,,,,,,=>,,=>&>&>=====,>=====-%%%=%O=%O%",
"*<1*,,,,*1*<1*1*,,,<,<<<*<<<*,,<,,,,,,,,,,,,>&,&,>>,====>=======%%-%%%%%O%%",
"<<*1,,,*<,<,<1*1<,,*<**,<<*222*<,,,>,,,,,>,,,&,,,&>&=,&>=====&==%%%%%%O%%%%",
"*<<*<*<*<<1*,**,*,*<,,2<<*,<<*2*,,2,,,,,,&,,,,,,&&&>==>==>====%=-%O-%%-O%O%",
"1**1*<*1*<*<,11*,22<*,,,,,,<,2<*2,,,,,=,,,,,>&,=>,>&==&==%%=%%=%%%-O-%%%%%%",
"*,,,1;1,1*,,;1,1,,*<,*,,,,,,,<*,,,,,,,,,,,&=,=,,&&&>=>===%>==>=O%O--%%-OOX%",
"*****,**,1*1;,,**<*<,,,,,<,,<*<<,,,,,,,&,,,&,=,,,>>=&=====O==O==%-%OO-%%--%",
"1**11*,;;**11*1,*,<2,,,,,,<,,,,,,,,,,,,,,&&,,,,&&,>&=>==%O>=====-%%-%-X%%O%",
"**1,,,,1,1**,,*,<,2*<,,<,,<*,,,,,,,&,,,&,,,,&,&&&&=&=&=O%=O=O%=OO%%OO-O-%%-",
"*1;;1*;;1*;,,;;;<<2*<*,*,,*,,1*<,,,,,&,&,=,&,,===&&&====&=&===O=O-O%O-%O%%%",
"***1;;;;;,1**1,;<**,<<,,,*,,,*,,,,&,&,,,,,,,&,&=>&&===&&&O=O=&%=%%-%%%-%%%%",
"1***;;;;,*;11;,**,,**<*,,*,<,,**,&,,,,,,,,,&=&,&&>>&==&&%===&%==%%%-%O%%%%%",
"*11*;;1**1;**,;12*,,<*<,*<<*,,<,&,&,,,&,,,&,&,&==&&==%&==OO&%==O%%%O%O%%%OO",
":*:**:*:*;;:;;:;;;;;;;;;;;1;;;;;,,,,,,&,=,&=,=,&=&===O=O=&=&OO=OO%%%%O%%O%%",
";;*1;::*;;;;;;;;;;,;;;1;1;*;;*;;,,&,&,&,=,,,&=&,,&=&=&&&=%O&==&=-%%OO%%%O%%",
";;**::*:**;*;*;:;,;;*;;,**;;,;;;*,*,,&,&&==,&&,&;=;&&==OO=O&&==O%O-OO%%O%OO",
"**:***:*:***;***;;;;;;;;;;;*;;;*,,,&&&,,,=,&=,=>&==&=&=====OOO==%%OO%%O%%O-",
"*:*****:*:**;*:**;;***;*;;*;;;**=,,=&&&,&,==,&==;==&O=&O%O%%=%%%O%--%%OOOOO",
":**::%***:*::;:;;**;*;;;;*%**;1%=&&&,,,&=&=,,-===>&&=&%&%%%%O%=&%%%O%%%%O%%",
":*%:*:*;:::***::*;*;;;%;*%;*%**%,&&,&&&,=,,==&=&&&&%O&&%%%=oO%O=%%%%O%-XO%%",
"*%*****:**:*::**;;,;;**;*;;;,%;;,&&&,,&&&,==&&&==&====O=&O%o%O&O%OO%O%X%%O%",
"**%*:%*:*::**:::;1;;*;*;**%*;*;*=&&====&>&&&>&&==&=&$%$=&%=O%%O%X%%X-O%XXXX",
"*%***********%*****;;:,;;;;;*;;*&,&,&=&&&&==$==&&=&===%=O%OO%OOO%%X-%XX-%%%",
"%%*:**:%*%*:*%****;;:;;*:;*;;;*;&=&&==&=&&=&$=$&$==$O=%O==O%OOO%%O%X%O%O%%%",
"***%**$%*:**:*:%%;;;;**;%;;:%;%*&&&==&===&&&%==%=O$=$O$OO%%O=%OOX%%%XOO%XX%",
"%*@%:**%******:%%;*;;;**%*:***%*&&&&o==&&===$$O%%%&OO%%%$%$$OO%O %XX%XX--XX",
"%***%%$**%*%:*%***%*;*;**:*%%***&&&&,&&&$$$&=$%%$%=$=OO%%O$$%O%O% X%XX%XX-%",
"@%%%@******%*%***:;**%%*%*%**%**,&&&&&&&=$===%&&=%O=%%%OOO$$OOoOX-X-X--XXXX",
"%**%**$**$****%**%%*%**%*%*%*%*$&&>&&&&O$&$$$$O$O$$O%$%%O%OO$OOO %XXX XX%X%",
"*%@**%**%%*****%****%*%*%*%**%%$$*$$=&&&=$%%$$$%==&O@%X%OXOOX@%X OOOXOX%XXX",
"%%%%%*%%*%@******$%%*%*%$*$%*$%*$%$&$$$$$%O&%=$$O$$=%X@@%@$$@O%O%OOXXO%XX%%",
"%*@*@%**%%@***%%%**%%*%**%*%@$%*=$$$$$$$$$$$$$$$$$$O@%O%%%@@%OXXOOXOXXOXX% ",
"%**@**@@@**@***@**$**%%%$**@*%$%=$&=$$&$$$$$$$$$$$O$%%@@XOO@XX%XXOO XOOXXXX",
"@**%@%@*@%**%*@%**@*****%%$%$$*$$$$$&&O$$$$==$OO$O$$$@%@@@@%XXO%OXXXOXXXXX ",
"@%@%%**@*@%@%@@%***@$@@+*@*@$*$**$$$$&$&$$$$$$$$$$O$%@@@@@@@@%O.OXXOX XXXXX",
"%%@*@*****@***@*@@*+@*+*$*$$**%*$$*$$#$$$$$O$$$$OO@@O@@@@%@X%XXO- XXXXOXXXX",
"%%%@*%%%@%%*@*@***+*+$*+@*$*@@@@$$$$$$$$$$$$@@$X$$$OXOX@@XXXX@XXO XXXX X XX",
"%@*%%%@**%*@*%@%*+***+*$$$$$$$$$$$$$*$$#@$@$@$#$$$$O@@X@X@@%XO@X  XX XXXOOO",
"%*@%@@%%%%@%%%@@+*+++*+*$$$$%$#$$$+$$$$$$$#$+$XXOO$@@@$@@@@@XXXXXXOXO  X  X",
"@%%@%**%*@*%*@**$$$**$++$$$$$$$$$+$+$$*$#$#X$$O$O$$OOO@OX@X.@X.XXXX     XX ",
"%@@@@*@*@*%@@*@@$$$$++*+#$$#$$$$+$$$$#$#+@#$$$@$$@@@@@X@XXX@.XX.XO OOXX   O",
"@%%%@@%@@%@**@@@$$$+$$#$#$$$$#$#$$@@##$$$$#$$$#$OOO.@O@@X@X@@XXX  X X     O",
"%@@@*%@%@%@@@*@*@@$$#$$#$#$$$$$$$$#+##$$$+OXX+XXX@X@@OOX@X@..@@XXXOXXX X   ",
"%@%@@@@@@%%%*@@@$@+$++###$#$#$##$#$$$@$#X$+$$.X+@+@X@@XXX@X@ @X.XXXX X O O ",
"@%@%%@@@@@@@@@@*$$$$+$##$#$#$$$$$$#++@+$O$#O$#$X@X.@@X@@X.@ @+.  XX XXX X O",
"@%@@%@@@@*@@*@@%@@%@%%@@*@*@@*@@+$$++#+++@@@$+oO+OoOX.XXX.XX.XX. ....... O ",
"%@@@@*@%@@@@@%@*%@@@@@@%*@@@@@@@++##$++$+@@@$+@$+ XooOXXX.XO.O.o .......   ",
"@@*@@@@%@@@*%@@@@*%@*@@*@@@@@@@@$$#$$+#+@O$OX+#.@+oXo.XXX.Xo .. ... .  .  O",
"@@@@*@@%*@@@@@*@@@@@@@@@@*@@@*@@++$++$$$$O@@##.XXXOXX....o  o. O.o..X.. O  ",
"@*@*@*@@@@@@*@@@@@@@@@@@@@@+@@*+#%#$+@@@.$#XX.X.o.. .X.oo oo o o   O.  X   ",
"@@@@*@@%@@@*@*@@@*%@@*@**@@*@@+++##$#@@+.Oo#.+#oX.oo.oooo       XXX    X O ",
"*@@@@@@@@@*@@@@@@@@@@@*@+@@+@@+@$+####+@+.X+#+.#.o ooXo o ..ooo            ",
"@@@@%@%@@@@@@@@@%@@%@@@@@@*@@+*@##$$@$+@$$+.#..#o.o.. ..   o . .XXX   XX  X",
"*%@%@@@*@@@@@@@@*@@@*@@@@*++@++*@@+@@+++++++++ +..X.+.      o      O       ",
"@@@@@@@@@@@@@@@@@@@@@@@+@+++++++@+@++@@++++ ++++.X..       o o..           ",
"@@@@@@@@@@@@@@@@@$@@@@++++@+*+++++++++++++++++++ ...#. .ooo                "
};
