/* XPM */
static char *result[] = {
/* columns rows colors chars-per-pixel */
"75 75 210 2 ",
"   c #094B44",
".  c #0E4C4B",
"X  c #064645",
"o  c #114E49",
"O  c #114C46",
"+  c #0E544C",
"@  c #0C5144",
"#  c #145147",
"$  c #13534A",
"%  c #18574E",
"&  c #125A4C",
"*  c #1A5E4B",
"=  c #1A5F46",
"-  c #0F5C51",
";  c #105F51",
":  c #1C5A52",
">  c #205D55",
",  c #1B6346",
"<  c #1D634A",
"1  c #1C694B",
"2  c #006753",
"3  c #006A55",
"4  c #006E58",
"5  c #0B695B",
"6  c #126151",
"7  c #106959",
"8  c #00735C",
"9  c #0A715F",
"0  c #187654",
"q  c #236D45",
"w  c #22684B",
"e  c #2D7D43",
"r  c #2A764A",
"t  c #317F45",
"y  c #27645A",
"u  c #2F7452",
"i  c #037460",
"p  c #017B64",
"a  c #0C7866",
"s  c #0C7A65",
"d  c #086E60",
"f  c #326A63",
"g  c #42766F",
"h  c #368A3E",
"j  c #54BA2E",
"k  c #46A53B",
"l  c #4BAA3D",
"z  c #45A636",
"x  c #56BD33",
"c  c #59BE35",
"v  c #52B43C",
"b  c #56BD39",
"n  c #5ABF39",
"m  c #57C135",
"M  c #59C136",
"N  c #5EC837",
"B  c #57C138",
"V  c #5CC33B",
"C  c #5FC839",
"Z  c #61C53E",
"A  c #61C93D",
"S  c #2F8143",
"D  c #318145",
"F  c #3A8E42",
"G  c #338348",
"H  c #358C41",
"J  c #3C9245",
"K  c #3D904A",
"L  c #228050",
"P  c #339450",
"I  c #02836B",
"U  c #01886F",
"Y  c #0A816D",
"T  c #028D74",
"R  c #098974",
"E  c #068771",
"W  c #009176",
"Q  c #03957A",
"!  c #019A7E",
"~  c #469E45",
"^  c #42954A",
"/  c #479B4D",
"(  c #489653",
")  c #49A445",
"_  c #4DAB43",
"`  c #4AA249",
"'  c #46A142",
"]  c #53AE48",
"[  c #52B243",
"{  c #57B941",
"}  c #5ABA45",
"|  c #56B04D",
" . c #5DBC49",
".. c #58B34B",
"X. c #528D6D",
"o. c #5FC541",
"O. c #5FC14A",
"+. c #63C642",
"@. c #68C746",
"#. c #64C945",
"$. c #69C946",
"%. c #65C64A",
"&. c #6AC749",
"*. c #67CA49",
"=. c #6ACC4C",
"-. c #70CE4F",
";. c #6DD14A",
":. c #69D045",
">. c #70D34F",
",. c #6DCD51",
"<. c #70CE52",
"1. c #70CF58",
"2. c #70D154",
"3. c #74D15A",
"4. c #009E80",
"5. c #109D83",
"6. c #02A285",
"7. c #01AB8C",
"8. c #06A488",
"9. c #18A98E",
"0. c #0BAF91",
"q. c #01B292",
"w. c #01BC9B",
"e. c #00B897",
"r. c #1BBEAB",
"t. c #6D998B",
"y. c #6F9591",
"u. c #799F98",
"i. c #779F95",
"p. c #6A968B",
"a. c #7EA19C",
"s. c #00C19F",
"d. c #00C6A3",
"f. c #00C9A6",
"g. c #00CEAA",
"h. c #08C2A2",
"j. c #12C3AB",
"k. c #00D3AE",
"l. c #01D6B1",
"z. c #01DBB4",
"x. c #02DFB9",
"c. c #19CEB7",
"v. c #21C0AD",
"b. c #02E2BA",
"n. c #08E2BC",
"m. c #5ACDB9",
"M. c #1ED6C2",
"N. c #00E5C0",
"B. c #1DE5C7",
"V. c #1FF1DA",
"C. c #1BEAD2",
"Z. c #27E6C5",
"A. c #21F2DB",
"S. c #3CE8CC",
"D. c #1CFEE4",
"F. c #1CFFE8",
"G. c #22FBE3",
"H. c #23FFEC",
"J. c #2DFFE6",
"K. c #23FFF0",
"L. c #33FEE6",
"P. c #6FD6C3",
"I. c #75D9C8",
"U. c #5CECD4",
"Y. c #75E6D1",
"T. c #73FEED",
"R. c #7FFFEF",
"E. c #6EF9E9",
"W. c #91B4A6",
"Q. c #A4BDBA",
"!. c #A6C3BE",
"~. c #B3C9C5",
"^. c #84E3D1",
"/. c #89E5D4",
"(. c #ADEBDF",
"). c #95F4E4",
"_. c #9DF5E6",
"`. c #9EF5EA",
"'. c #8AF4E4",
"]. c #B8EDE4",
"[. c #A2F6E7",
"{. c #A7F6E8",
"}. c #ABF7E9",
"|. c #A7F9EA",
" X c #A9FAEB",
".X c #AAF4E7",
"XX c #B3F7EA",
"oX c #BAF7EC",
"OX c #B4F9EF",
"+X c #B5FEF7",
"@X c #C7D6D4",
"#X c #D3DFDE",
"$X c #C2D4CF",
"%X c #D5E0DE",
"&X c #D7E4E3",
"*X c #C4F8EF",
"=X c #C4F7EF",
"-X c #C5FAF3",
";X c #C9FBF6",
":X c #D2FCF9",
">X c #DAFDFC",
",X c #D6F9F3",
"<X c #E5EEED",
"1X c #E3FBF7",
"2X c #E2FEFE",
"3X c #EDFDFC",
"4X c #EBF7F5",
"5X c #F6FDFC",
"6X c #FDFEFE",
"7X c #F4F7F6",
/* pixels */
"=.;.-.=.-.-.=.-.-.;.=.-.;.-.-.-.-.=.;.;.<.-.<.-.<.<.<.=.,.,.,.,.<.,.=.-.<.2.-.=.=.-.=.=.$.=.$.$.$.$.=.$.$.=.@.@.=.@.=.$.&.&.&.&.=.=.&.@.@.$.@.@.$.&.A ",
"-.=.-.;.=.2.;.=.-.;.=.-.<.;.&.=.2.=.-.<.=.-.=.<.<.-.<.<.2.,.2.<.=.,.,.=.$.=.=.=.,.=.=.&.=.=.$.#.$.#.$.#.=.$.$.$.$.+.=.Z @.$.$.$.$.&.&.@.$.=.-.@.$.Z -.",
"-.=.-.-.=.=.=.;.-.=.$.,.=.=.;.=.=.=.=.2.=.-.=.<.=.=.=.,.=.,.,.,.=.,.2.=.$.=.,.2.,.=.=.=.$.$.@.+.+.$.$.$.*.%.$.*.$.@.$.$.$.@.Z =.@.+.&.=.@.&.-.&.-.&.Z ",
"=.=.=.=.;.=.=.*.=.=.=.=.,.<.-.-.=.=.<.<.<.<.=.=.,.=.=.<.,.,.,.,.=.<.=.,.=.=.=.<.=.=.&.=.$.$.+.#.$.$.$.#.#.#.#.@.=.$.@.@.+.#.@.$.$.$.&.@.=.Z Z @.&.&.@.",
"=.=.=.=.$.=.=.=.*.=.=.=.=.-.=.=.=.=.,.,.=.,.,.=.-.;.,.,.,.=.,.*.,.,.,.,.=.,.,.,.=.,.=.&.@.=.*.$.*.*.$.$.+.#.@.+.+.*.*.@.@.$.@.$.+.$.@.Z @.@.@.@.@.@.@.",
"=.-.=.$.$.=.=.;.=.=.;.=.=.=.=.<.,.,.=.,.,.,.*.,.,.=.,.,.,.=.,.,.,.=.,.,.2.=.,.,.=.=.*.*.=.*.*.*.$.*.+.=.$.*.#.#.#.@.@.#.+.@.$.@.#.+.+.@.@.@.Z @.Z @.@.",
"=.$.=.=.=.*.:.*.=.=.=.$.=.=.=.=.=.;.,.,.*.;.,.,.=.,.,.,.=.,.1.,.=.,.*.=.=.=.,.,.=.,.$.%.=.+.$.@.*.%.=.%.+.$.#.#.+.+.@.V +.+.+.+.@.Z +.Z @.@.@.@.@.Z Z ",
"=.=.=.;.,.$.=.,.,.,.*.$.$.=.=.,.,.,.=.,.=.=.1.,.,.,.,.,.=.*.,.*.,.,.,.,.=.$.=.,.$.=.=.=.*.@.%.@.$.#.&.#.+.@.+.V V +.@.+.@.+.o.@.@.+.@.+.@.+.Z @.@.&.@.",
"=.,.,.*.,.=.*.=.=.=.2.,.*.#.=.*.*.,.,.,.,.,.,.=.,.=.*.=.,.*.%.*.=.=.=.=.=.@.=.$.*.%.=.*.%.=.=.@.#.*.o.+.*.+.+.#.=.+.o.+.+.+.+.+.@.@.Z Z @.@.@.Z Z @.Z ",
"*.:.*.*.*.*.=.,.;.=.:.,.,.,.=.,.2.=.=.,.,.,.,.,.*.,.,.=.*.,.=.=.%.=.,.=.*.=.*.*.=.=.=.=.=.&.=.=.+.=.&.@.#.%.#.+.@.Z +.+.Z +.+.+.+.Z +.Z Z Z @.Z Z Z Z ",
"*.:.*.;.*.,.;.,.=.*.=.=.;.=.,.=.=.=.,.=.=.=.=.,.=.=.=.*.=.*.,.*.,.*.#.*.=.*.%.=.,.*.,.@.=.=.*.$.@.@.#.@.@.V +.@.@.#.+.V Z @.Z @.@.+.Z @.Z Z @.n Z Z Z ",
"=.=.=.*.,.*.=.=.=.,.,.=.*.*.=.,.=.=.=.,.=.,.,.%.=.1.3.1.*.,.,.=.,.*.,.,.=.=.*.*.,.=.=.*.+.%.*.#.*.*.=.%.+.@.#.@.+.+.V @.@.+.n +.@.@.Z Z Z Z Z @.Z Z Z ",
",.*.#.*.o.#.;.,.,.=.*.,.2.=.=.,.;.2.=.,.,.,.*.,.*.o.,.*.=.1.*.*.=.%.,.*.,.*.*.,.=.=.$.=.$.*.*.@.=.&.@.#.+.%.*.@.&.@.+.&.@.+.+.@.Z Z Z Z @.@.Z Z Z c @.",
"*.#.o.,.=.*.=.=.=.=.=.=.=.=.=.*.#.=.*.%.*.,.*.*.2.%.=.,.=.=.*.,.=.=.*.#.%.,.,.,.,.%.=.#.=.*.$.@.*.%.*.@.#.@.+.+.@.%.+.+.+.+.+.+.@.Z +.Z Z @.Z c Z @.@.",
"*.*.;.=.;.=.=.*.=.*.=.=.=.*.=.,.=.*.=.=.*.:.*.*.,.2.,.=.,.=.1.=.=.,.>.;.=.;.>.;.$.;.=.=.%.=.*.*.#.+.@.*.$.o.+.+.+.#.+.+.+.@.+.@.Z @.Z @.Z @.Z @.Z Z @.",
"*.*.*.=.*.*.=.=.*.=.:.*.$.=.*.=.=.=.=.*.=.*.*.,.*.*.*.,.*.*.,.,.=. .] | | | ] | _ ..%.=.=.*.*.%.%.#.#.*.+.@.+.+.&.%.&.+.+.Z +.+.@.Z Z Z @.Z Z Z @.Z Z ",
"o.:.,.=.*.:.,.=.*.#.=.#.:.=.=.,.*.*.=.o.1.=.;.O.=.*.o.,.*.*.=.o.=./ . . o o .   . <  .=.*.=.#.o.%.,.&.%.+.V @.@.+.V &.+.Z +.+.Z +.&.@.Z @.+.Z Z @.Z Z ",
"C *.=.*.o.=.*.*.*.*.o.:.*.,.2.*.=.*.=.,.1.;.1.:.=.*.2.,.=.,.*.=.;.~   X       X X , } $.@.*.#.%.$.*.@.%.%.#.o.#.#.@.+.+.+.+.Z &.+.Z +.Z +.Z Z Z A Z Z ",
"=.=.#.o.=.:.#.*.*.,.=.=.*.*.*.*.*.,.,.*.*.*.*.;.,.*.*.,.#.;.O./ J X.W.i.a.a.u.W.a.i.( K ' *.*.*.*.#.=.*.@.@.%.#.#.%.#.+.+.+.@.+.Z Z @.+.+.@.Z Z Z Z Z ",
"*.#.#.:.,.*.#.*.#.=.*.:.,.=.=.*.#.*.:.*.*.*.*.*.*.*.2.*.O.:.] 6   t.6X6X6X6X6X6X6X&Xf X r %.$.*.*.%.*.=.+.+.+.+.+.+.o.+.+.#.+.+.Z +.+.Z +.+.+.Z Z Z Z ",
"*.*.*.2.o.*.*.:.*.o.*.*.=.=.#.*.:.#.*.*.*.*.#.*.=.*.=.*.$.#._ w @ p.5X6X6X6X6X6X6X%Xf   r *.*.#.#.#.%.@.,.#.+.+.o.@.%.@.+.@.#.#.+.+.+.+.+.Z Z Z Z Z n ",
":.o.;.*.#.,.O.,.;.A :.#.,.=.,.=.*.o.2.2.*.o.*.*.=.*.*.o.G , X.~.$X&X6X6X6X6X6X6X6X7X@X@XW.r q ~ #.#.*.V %.+.+.+.V %.@.@.Z Z } +.+.Z n Z n @.Z Z Z n @.",
"*.*.#.#.#.=.*.:.o.o.*.*.=.*.*.#.*.#.*.*.*.#.*.*.=.%.;.O.q X g 4X6X6X6X6X6X6X6X6X6X6X6X6X~.: . K +.$.#.#.V #.@.+.+.+.+.%.+.Z +.+.@.+.+.Z +.+.Z Z Z n Z ",
"#.#.*.#.*.:.#.=.:.*.*.*.=.*.*.;.*.*.*.*.*.*.*.*.%.%.%. .u : g <X6X5X5X5X5X5X5X5X5X5X6X6X~.6 + K O.{ +.+.+.+.+.#.V +.+.Z +.+.Z Z +.+.Z @.@.n Z +.@.Z Z ",
":.*.*.*.:.#.#.;.*.#.#.:.*.=.=.*.#.*.*.*.*.#.*.*.o.G & y $X6X,XXX[..X{.{.[.{.[..X{.XX3X6X(.h.f.R $ < ' $.#.#.Z +.*.@.V @.@.V +.+.Z Z Z Z n &.Z Z @.Z Z ",
"*.o.C o.#.o.*.*.=.*.=.*.*.#.$.#.:.*.*.*.#.$.=.:.#.D   : @X6X4X{.[.[.[.[.[.[.[.[._..X5X6X].f.f.R O $ ) =.%.@.V Z o.#.+.V o.#.Z +.Z Z Z Z Z Z +.O.@.Z @.",
"#.*.#.o.o.*.#.#.=.=.*.o.o.*.:.#.*.*.#.:.*.$.} ` ` X.p.p.&X6X>X{.[.[.[.[.[.[.[.oX*XoX[..XY.k.k.8.s Y P ~ ` +.+.%.+.+.+.o.#.@.+.@.Z Z +.+.+.&.+.Z Z @.Z ",
"*.*.*.:.=.=.*.=.#.*.:.*.*.*.*.#.*.*.*.*.*.*.^ + % Q.6X5X2X2X:X{.[.[.[.[.[.[.{.1X6X,XZ.x.b.b.x.k.f.s.a . < [ #.o.#.o.o.V o.Z V V Z Z Z Z Z Z Z Z Z +.Z ",
"#.#.#.#.#.#.;.*.o.*.*.$.=.*.#.#.*.#.*.*.*.;.J $ % !.6X5X2X2X:X{._.[.[.[.[.[.{.1X6X,XZ.b.b.b.x.k.f.f.s # < [ $.#.+.+.+.V V V +.+.Z +.+.V n Z Z +.n Z Z ",
"#.+.#.#.#.*.#.#.*.#.#.:.*.*.*.=.#.*.*.:.o.*.~ + % Q.6X5X-XOX*X,X,X:X-X-X-X-X;X2X3X>X).'.U.b.b.k.f.s.a O < [ A o.+.V o.V +.V V Z +.Z V +.Z Z Z Z @.Z n ",
"o.#.=.$.#.o.#.#.#.:.o.#.#.*.:.#.*.*.*.#.*.:.P + $ Q.6X5XXX_.XX5X6X5X>X2X2X>X2X2X>X2X2X3X[.n.b.l.f.f.a O < [ A V V +.n +.o.+.+.+.+.n Z +.Z Z Z n Z +.+.",
"#.#.#.#.*.#.#.o.#.#.o.#.#.#.#.*.:.*.*.o.O.O.K y y ~.6X4XoX{.oX3X5X3X>X>X>X>X>X>X>X>X>X2X).z.z.k.f.f.a & 1 _ } } o.V +.+.V +.+.Z +.Z Z Z n Z Z Z Z Z +.",
":.o.o.:.*.#.#.#.*.#.o.#.#.*.:.#.*.*.#. .r , t.%X#X].XXXX,X5X,XoXXX}. X}.}.}.}.}.}.}.}.OXI.8.! s.b.l.s.q.8.0 * K +.n o.V +.+.V +.} +.Z +.Z V V V Z Z n ",
"#.O.:.o.o.#.#.#.#.#.:.:.#.*.o.#.#.#.:.} , X a.6X6X-X_..X3X6X5X}.`.[.[._.[.[.[.[.[.[.[.[.P.Q T e.b.b.k.k.w.5 . t Z +.o.+.o.V +.V +.n Z V V +.Z V Z Z Z ",
"o.#.*.o.o.:.#.#.*.o.:.o.#.o.o.o.o.#.$.O.< X u.6X6X*X[.{.1X6X>X}.[.[.[.{.[.[.[.[.[.[.[.|.P.Q Q e.b.b.g.f.e.7 . G Z V V o.Z V V +.+.Z V Z Z V Z Z n n V ",
"#.#.*.#.o.C #.o.o.o.o.o.o.#.:.O.o.o.$.} <   a.6X6X=X_.{.:X2X:X{.[.[.[.[.[.[.[.[.[.[.[.|.P.Q T s.b.b.g.g.e.7 . t Z #.@.V V V V V Z +.Z Z V Z V V Z Z V ",
"#.o.#.:.#.o.#.:.:.:.#.o.#.#.*.:.#.#.:.} < X u.6X6X*X_.{.:X2X:X{.[.[.{.[.[.[.[.[.[.[.[.|.P.Q W e.b.b.k.f.w.7 . e $.n V n V +.V Z n Z Z Z +.@.n Z V Z Z ",
"#.o.o.o.o.o.#.o.o.o.#.#.#.#.*.o.$.o.#.} w X u.6X6X*X_.{.:X>X:X{.[.[.[.[.[.[.[.{.[.[.[.|.P.Q W e.b.b.g.f.e.7 O G Z +.+.o.+.o.n +.+.n Z Z Z +.Z Z Z n n ",
"C :.#.o.:.#.o.#.#.*.:.O.#.*.o.#.#.#.o.{ < X u.6X6X=X_.{.:X3X:X}.`.[.[.[.[.[.[.[.[.[.[.|.P.Q T s.b.b.g.g.w.7 O e A V V +.Z n V V Z Z Z Z Z n n Z Z n Z ",
"o.o.o.:.o.o.#.o.#.o.o.:.o.o.:.#.#.o.#.O.w X u.6X6X=X_.{.;X>X;X}.[.[.[.[.[.[.[.[.[.[.[.}.P.Q W q.z.z.f.f.e.7 O t A +.Z V Z V Z n Z n Z n n Z Z Z n Z n ",
"o.C #.C B C o.:.#.#.*.:.*.o.:.o.#.*.:. .< X a.6X6X>X;X-XU.S.U._.[._.[._.[.[.[.[.[.[.[.[.P.Q Q W W W U T I - . D #.Z Z n Z n Z Z c c Z Z c Z Z n n n Z ",
"o.o.C o.#.o.o.o.#.#.o.o.:.o.o.#.o.o.#.} <   a.6X6X3X3X:XZ.x.n._. X X X X}.XX|.|.|.|.|. XI.Q W I 2 3 3 4 2 & . S Z o.Z +.Z n n n Z Z Z n Z Z n Z Z @.n ",
"o.o.o.#.o.:.o.#.o.#.#.o.o.o.#.#.#.#.:.} <   i.6X6X:X+X XS.N.Z.Y.^.^.^.^././.^./././.^./.m.! ! W I I p 8 8 & . e A V Z Z Z n n n Z Z Z c n Z Z c n Z Z ",
"#.C A A C o.o.o.C o.#.#.o.#.#.o.o.o.C } < X i.6X5X'.L.L.D.V.C.8.! 5.5.8.Q 9.! ! Q Q 9.! 0.l.b.b.k.k.6.T U - . D Z V Z Z n n Z Z c c Z Z Z n n Z Z Z n ",
"#.o.C #.o.C #.C o.C o.o.A o.o.o.#.o.$.} <   a.6X6XT.D.H.H.K.C.! R Q W T T T T W R Q W U 7.b.b.b.b.b.7.Q T 6 . e M Z Z Z Z Z n Z Z Z c Z c c Z n n Z Z ",
"V C #.o.#.o.C o.o.o.:.o.o.o.#.o.C *.#.b <   u.6X5XT.D.D.c.j.j.q.q.0.q.7.q.q.q.7.q.0.q.q.q.q.q.s.b.b.7.W E 6 . e Z n Z c n Z c Z Z c c N c n Z Z n Z Z ",
"C o.V V C C #.o.o.C o.o.C #.*.o.o.o.#. .< X u.6X6XT.H.A.R 3 U l.b.b.b.b.b.b.b.b.b.b.b.n.s.8 3 7.b.x.7.W T - O D A M M Z Z c Z c c c c Z c Z Z n n c c ",
"C V C #.o.o.C o.C o.o.C :.o.C C o.#.A { < X a.6X6XT.D.A.W 3 U k.b.b.b.b.b.b.b.b.b.b.b.b.s.4 3 7.b.x.7.W E ; O D A n c Z M c c Z c Z c c Z c c c c @.c ",
"o.V o.C V V A V #.o.o.C #.o.C o.o.C C { 6   a.5X5XT.D.V.T 3 E k.b.b.x.b.b.b.b.b.b.b.b.b.w.8 3 T q.7.! Q T 6 . D Z M n x M n c M c Z c c c c j n Z Z c ",
"$.V #.o.#.#.#.$.o.C #.o.C o.o.o.o.O.o.o.1   a.6X6XT.F.V.R 3 E z.b.x.b.b.b.x.b.b.b.b.b.b.w.8 8 I W W W Q U ; . e N V Z n Z M V V c c Z c Z c Z Z n c Z ",
"*.+.V V V o.o.C o.o.C V o.o.o.C o.o.o.o., @ a.7X4XT.F.A.T 3 U k.b.b.b.b.x.b.b.x.b.b.b.b.w.8 3 I W W W W U 6 O D M V Z c M x M Z c c Z Z j Z c c n Z c ",
"V A V #.o.C V V C o.o.C C o.o.o.C o.C o.B o.J : > j.H.V.R 3 U l.b.b.x.b.b.b.b.b.b.b.b.b.w.8 3 I Q W 5 + < _ n n x M V Z Z n n c Z c c c c c c c c n c ",
"V V Z V A V o.V C V C C o.C B o.o.C #.o.C #.J + $ r.K.A.R 2 E k.b.b.b.b.b.b.b.b.b.b.b.b.w.8 4 I Q W 7 . , l N c Z M Z V M M n M c Z c j c j c c n c c ",
"N Z V V A V C o.o.o.C o.C B o.C B C B #.o.o.' q r 9.M.c.R i T k.z.l.z.z.z.z.z.z.z.z.z.b.e.p p p I I 0 q e v Z n V V M M M V x M Z c c c c Z c c c c c ",
"V #.Z N V C V V *.*.o.C o.B o.o.o.o.B B C B C B n t o ; I Q 4.w.f.f.f.f.d.f.f.f.f.f.f.f.e.W Q 9 # $ k V n M M M M x x n M Z M c Z Z N c j c j c Z c c ",
"V Z Z Z #.C C V C o.o.o.o.o.V C B o.C C B o.o.B n e . + E Q 4.f.g.g.g.g.k.f.k.f.k.f.k.f.w.Q Q i . $ ` Z c M x M M j M Z M j Z M c c Z c c c c Z j j c ",
"N A V B V V o.#.o.o.o.C o.V o.o.V C B C V C o.B C ' H H 0 9 i E R R R R R R R R R R R R Y 9 d L F J v V c c V c M M M M M x V V c Z c j c j j c c n c ",
"V V V #.V C V V o.C V V C C o.o.C V B o.B V N B o.o.C V q o $ + # # # # # # # # # # # o # # o h N M B c M n n M Z V c M +.V n M c c c j j c c j j j j ",
"#.#.o.o.o.o.#.C o.o.o.C o.C V V B V V V o.o.B B B V C v < . + . + . + . . + . . . + + . o . . h M M V o.#.M V M M M c c n x n V n c c c c j j j j j c ",
"Z V C m m C V #.V C V V C B B V V C V V o.o.m B B C V B l l l z z l z z _ _ _ l _ k z _ l _ _ v M c V V %.n c c M V M c Z M c x c c c c c Z j c c j c ",
"A N c +.Z V N V M #.A V V V B C V B V C V m m V B B C V C A A C N C C A Z C C A V N N A A A N V M n c M x M M V M M M M x V c M c j j j c n j c j c j ",
"V V V M V V M V V V V V V V V V V V V m C C B V B V B V B o.C o.V b V B M M c B V o.M M M n M M M M B V c c M M Z M x n M j n x c n c c n c j j j j c ",
"V V V V V M C M M M V M M V V V V V V m m B m m m m V V V B V V V V V o.V M B M B V b V M V M x M B c B M M V M j x M c M x M c n c c c c c c c c j j ",
"M N V V N V V M M M B V B C V m V C V V V m C m m B B V V V V B V o.V V B M V B c M M M M M B m c c M M M x c x n M M M c c j j j j c n j c c c j c j ",
"+.M V M Z Z V V V B B V V C M M M Z M M V M M +.V B o.V M B V o.o.B o.M V V B V V x V V V c M M c n B B V c c x n n M V c c c j x M c x j x c x c c c ",
"V V Z M M V V M B V M M V V V M M V V V V V B M V V M V M B V M V M B B o.V M B M V B M M M M M B V b c n c n M x x c M n c c x B c j c c j c c n c j ",
"V V M Z M M N M V V M V M o.V V M M N Z M V #.M M V B B V V B V V B c B b V V m V M M B B M x x b c c M b c M n b x b x c c x b j x x x x j x x c c c ",
"M M M M M V M V o.V V V V V V M V M M M V M B M V V V V B B B M M B B B V c c B V M M B M M B B B M c M V x x x x c x x x c x x x c x c c x c x j j j ",
"M x M V V V M M M M M M M V V M M M V B B V V B B V V V B M V o.B V V B m x B B V c M V b B x m m m B j x c c B x n c x c x c x c v j c j c j j j j v ",
"V M B M M M o.V V M V B V V M M M M o.+.V B V m V o.B B V V B B m m B V x B m o.B b c B B B B x x B B x b x c B c b c c b j x x j j j j j j j j j c j ",
"M V V M M B V V B V V V M V N M V M M V V M B V V B B V V B V B B V B B B M M B B M c b M c B B m b b j x x c c b x x j j x x j c c c c j j c j j j j ",
"V V M V V V V B V M B V M B M M V V V M B B V M B V B B V B B V V B V V o.M M M m M M V c c B b m B c x m b c c j j j x j x c x c j v j n j j c c c j ",
"M M M V V M V M M B M m m M M M m V V V V m M M V B m C B m B B B V B B B B B m x B B M m B M M m m x x B x m b j j j x b j x x j j c j j c j j j j j ",
"M V V V M M M m #.M m M m m M M m M M M M V V V m V V m B m m m M M B V B m m M B B x M B x x m x x x B j B j x j j j j b x x j j c j c j j j c j j j ",
"V M M M M M M M V M M M M M M V M M V V M M V M B B M m B M M B B M M m B M B m M m x B m m M m M x j B j x x x j m j b x c x x j j j j j j c j j j j "
};
