/* XPM */
static char *_8585bd74aac482feef15ff85686a8efToi5orLlHQWGDLrC[] = {
/* columns rows colors chars-per-pixel */
"75 75 181 2 ",
"   c #160C03",
".  c #1A0D03",
"X  c #2B1606",
"o  c #311605",
"O  c #21220C",
"+  c #322916",
"@  c #263311",
"#  c #2A3514",
"$  c #693416",
"%  c #6A311B",
"&  c #513A28",
"*  c #793324",
"=  c #723926",
"-  c #7D3A24",
";  c #32481A",
":  c #395D21",
">  c #3C6023",
",  c #72441F",
"<  c #7C4221",
"1  c #784D2E",
"2  c #7B4932",
"3  c #745337",
"4  c #446E27",
"5  c #717E33",
"6  c #7F5F45",
"7  c #586049",
"8  c #4D6C59",
"9  c #51577E",
"0  c #7B587E",
"q  c #427464",
"w  c #537E63",
"e  c #476D76",
"r  c #486D77",
"t  c #496E78",
"y  c #696868",
"u  c #677463",
"i  c #803F24",
"p  c #824624",
"a  c #844825",
"s  c #884A2A",
"d  c #94552E",
"f  c #855332",
"g  c #965A33",
"h  c #8E6434",
"j  c #9A6338",
"k  c #A2653E",
"l  c #8E5F55",
"z  c #88644B",
"x  c #9E7546",
"c  c #93784E",
"v  c #8A6955",
"b  c #956E53",
"n  c #9B6E51",
"m  c #947254",
"M  c #9E7153",
"N  c #A46C49",
"B  c #A17456",
"V  c #A47658",
"C  c #AF7759",
"Z  c #A6785A",
"A  c #AB7C5E",
"S  c #B17B58",
"D  c #855E71",
"F  c #976D74",
"G  c #A67E62",
"H  c #AD7E61",
"J  c #AB7668",
"K  c #B37E66",
"L  c #A77C7C",
"P  c #778336",
"I  c #54BA2E",
"U  c #56BD33",
"Y  c #59BE35",
"T  c #56BF38",
"R  c #5ABF3A",
"E  c #66B53F",
"W  c #62BE3E",
"Q  c #57C035",
"!  c #59C137",
"~  c #57C138",
"^  c #5CC33B",
"/  c #61C43E",
"(  c #1D877E",
")  c #308278",
"_  c #2BB47E",
"`  c #3CB472",
"'  c #7E9949",
"]  c #629252",
"[  c #629951",
"{  c #5DBF42",
"}  c #57B44E",
"|  c #53BF53",
" . c #6BB543",
".. c #6DB845",
"X. c #6BBA48",
"o. c #48897C",
"O. c #5FC540",
"+. c #5FC841",
"@. c #4FC155",
"#. c #53C254",
"$. c #63C642",
"%. c #69C746",
"&. c #64C945",
"*. c #6AC946",
"=. c #69CA47",
"-. c #66C349",
";. c #69C74A",
":. c #67CA49",
">. c #6ACA49",
",. c #69CB4A",
"<. c #6ACC4B",
"1. c #6CCD4B",
"2. c #69CB4C",
"3. c #6BCB4D",
"4. c #6BCC4C",
"5. c #6CCD4D",
"6. c #70CE4E",
"7. c #6DCD51",
"8. c #6ECE51",
"9. c #70CE52",
"0. c #72CF55",
"q. c #869548",
"w. c #9E8459",
"e. c #8E9E55",
"r. c #909E57",
"t. c #A1865A",
"y. c #9F8165",
"u. c #A58064",
"i. c #AC8765",
"p. c #B38667",
"a. c #B98E6E",
"s. c #B78D74",
"d. c #BC9379",
"f. c #241E8C",
"g. c #291F92",
"h. c #292093",
"j. c #2C2498",
"k. c #31239D",
"l. c #3C3D99",
"z. c #3426A3",
"x. c #3728A7",
"c. c #3828A7",
"v. c #3729A8",
"b. c #3829A8",
"n. c #442B8C",
"m. c #44339D",
"M. c #18549A",
"N. c #237F98",
"B. c #0E7FA0",
"V. c #4F4788",
"C. c #9F7C80",
"Z. c #8273AC",
"A. c #1D9083",
"S. c #009E9D",
"D. c #08999D",
"F. c #159A95",
"G. c #1F9B97",
"H. c #1E9C98",
"J. c #228A83",
"K. c #1EAD8C",
"L. c #00A09F",
"P. c #1AA29E",
"I. c #1DB492",
"U. c #1DB996",
"Y. c #2BB982",
"T. c #20A09C",
"R. c #0D88A9",
"E. c #059DAC",
"W. c #00A3A3",
"Q. c #0EA5A3",
"!. c #00ACAC",
"~. c #1FA8A3",
"^. c #00B0AF",
"/. c #00AFB0",
"(. c #00B1B1",
"). c #4E8F82",
"_. c #4B9084",
"`. c #BF9881",
"'. c #C4A593",
"]. c #C9C5D2",
"[. c #DCDAD8",
/* pixels */
"1.5.5.5.1.1.6.5.1.5.1.1.5.5.5.1.5.5.8.5.5.5.9.9.0.5.8.9.9.5.9.5.5.8.5.8.5.5.5.9.,.,.=.=.,.=.,.=.=.=.=.=.=.=.=.,.,.,.=.=.,.,.,.,.,.=.%.=.%.,.=.=.$.=.%.",
"5.5.5.5.5.5.1.1.5.1.5.5.<.5.5.1.5.8.8.5.5.5.5.5.8.9.9.8.9.8.5.5.5.<.4.<.5.4.5.,.,.,.=.,.=.:.:.:.:.$.=.,.,.,.,.=.%.$.$.,.:.:.=.=.,.=.,.,.3.%.,.$.%.;.$.",
"5.<.5.5.5.5.8.5.<.5.5.<.8.<.5.<.5.5.8.4.8.8.8.5.<.4.4.4.4.4.5.8.8.4.5.<.5.5.4.,.,.,.,.:.:.:.:.:.=.&.$.=.:.:.:.,.:.$.:.$.$.=.$.$.$.,.=.,.=.%.%.%.,.%.%.",
"5.5.<.<.<.,.<.,.5.5.5.5.5.5.5.4.5.5.8.8.4.8.5.5.4.8.4.8.8.8.4.8.3.,.4.4.<.4.4.3.,.,.,.=.:.:.:.,.:.$.$.:.:.$.:.=.%.:.$.$.$.:.$.$.$.:.$.$.%.%.$.%.%.$.%.",
",.,.,.,.<.<.,.<.5.5.5.8.8.<.4.<.5.8.8.4.5.5.8.8.<.8.8.5.4.8.8.8.5.8.3.5.8.5.4.3.3.,.,.,.:.,.:.:.:.:.&.$.$.$.:.=.=.$.,.=.$.$.$.$.%.$.%.%.$.;.;.%.%.%.%.",
"<.,.,.,.4.4.<.,.,.,.<.5.<.5.8.8.5.5.5.5.4.5.4.<.5.5.4.8.4.8.8.,.5.8.4.5.8.5.3.,.3.,.,.,.:.:.:.:.:.:.$.:.$.$.$.:.$.$.$.$.$.$.=.$.$.$.$.$.$.$.$.$.%.$.$.",
"<.<.<.<.<.<.<.4.4.4.5.5.,.,.,.5.8.4.<.4.5.4.4.5.4.8.8.8.8.3.8.8.3.,.4.4.5.8.8.8.,.$.,.=.,.:.,.:.,.=.:.$.$.$.$.$.:.$.$.$.$.$.$.$.$.$.%.$.%.$.$.$.%.$.$.",
",.<.5.<.<.<.5.5.<.:.,.,.,.3.5.4.3.4.5.4.5.8.4.5.5.5.8.8.4.5.4.8.4.8.4.,.4.4.4.,.3.,.,.:.,.,.&.:.:.:.$.$.$./ $./ $.$.$.$.$.$.$.$.$.$.$.%.$.$.$.$.$.$.$.",
"4.4.4.<.<.,.,.,.5.5.4.:.4.4.,.4.5.8.5.8.5.4.4.5.8.,.,.3.:.,.3.3.3.,.,.,.:.,.3.,.,.,.,.3.,.,.$.:.$.$.$.$.$.:.$.$.$.$.$.$.$.$.$.$.$.$.$.$.$.$.$./ $.$.$.",
",.:.<.:.<.4.4.<.<.5.5.5.4.5.8.4.4.5.5.4.8.8.<.4.5.<.,.4.4.4.3.:.,.3.3.,.,.3.3.,.3.3.,.,.;.,.-.:.,.$.-.$.$.$.$.$.$.$.$.$.$.$.$.$.$.$.$.$.$./ / / $.$./ ",
",.,.4.<.<.5.<.4.4.4.<.<.4.4.4.4.5.4.,.4.3.4.,.3.,.,.3.3.4.4.3.,.:.3.3.,.,.,.,.:.3.:.3.,.:.$.:.:.:.:.,.$.$.$.$.$.$./ $.$.$.$.$.$.$.$./ / $./ $./ / / $.",
"<.:.,.:.4.4.5.<.4.4.<.4.4.5.,.4.3.,.3.4.4.,.4.5.8.8.5.:.:.<.4.,.4.3.4.3.,.,.3.:.:.,.$.:.:.:.3.,.:.$.$.$.$.$.:.-.$.$.$.$./ $.$.$.$.$.$./ / / / $./ $./ ",
":.,.:.,.5.4.,.,.,.4.5.<.,.4.4.8.<.,.3.,.3.,.<.:.:.,.:.4.4.,.;.; # # # # @ @ @ @ @ @ @ @ 4 ,.,.,.:.$.$.$.$.$.$.$.$.$.$.$.$.$.$.$.$.$.$./ $.$./ / / $./ ",
":.:.3.:.<.<.4.4.,.4.4.5.4.:.,.<.4.:.,.,.:.4.4.3.4.4.3.,.:.4.-.O       .                 : ,.:.:.:.:.$.$.$.$.:.$.$.$.$.$.$.$.$.$.$.$.$.$.$./ / $./ $.$.",
":.,.4.<.4.<.4.,.4.<.,.,.4.4.<.,.,.<.<.3.,.3.4.4.4.8.5.3.8.3.-.O         . X o o o       : ,.:.$.:.:.:.$.$.$.$.$.$.$.$.$.$.$.$.$.$.$.$.$.$./ $./ $./ / ",
",.:.:.<.:.,.:.:.,.<.,.<.,.:.<.4.<.<.<.:.,.<.4.4.5.8.4.,.4.3.-.O + 6 z z v v z z z 3 1   > :.:.,.:.:.:.$.$.$.$.$.$.$.$.$.$./ / $.$.$.$.$./ $.$./ $./ $.",
":.,.,.:.:.:.,.,.<.:.,.,.3.4.,.4.4.4.4.4.4.4.4.:.,.:.,.,.3.:.-.+ & p.a.a.d.d.a.a.a.S N X 4 $.:.:.:.$.$.$.$.$.$.$.:.$.$.$.$.$.$.$.$.$.$.$.$.$./ / / $.$.",
",.,.:.:.4.<.:.:.:.:.,.:.4.4.<.:.4.<.4.4.4.,.4.<.4.4.:.:.:.3.,.w.H p.p.H p.H B i.a.N k j q.:.:.:.:.:.$.$.$.:.$.$.$.$.$.$.$.$.$.$.$.$.$.$.$.$./ / ^ ^ / ",
":.:.:.:.:.<.4.<.:.<.<.<.:.,.:.4.<.:.3.:.:.<.4.,.:.:.4.,.:.:.3.i.s.'.C.D J K A F F s.s.N q.:.:.:.:.:.:.:.$.$.$.$.$.$.$.$.$.$./ $.$.$.$.$.$.$.$.$./ / / ",
":.:.,.,.,.:.:.<.<.:.:.,.,.<.,.<.:.4.:.:.<.:.:.,.4.4.:.:.:.4.3.i.'.[.Z.n.J K a.0 n.].[.A e.:.:.:.:.-.$.$.$.$.$.$.$.$.$.$.$.$.$.$.$./ $.$./ $.^ $.^ / ^ ",
":.:.,.:.:.:.:.:.:.,.:.,.,.:.,.:.:.:.:.:.:.,.:.,.:.:.:.,.:.:.;.x C `.L F f 2 2 l F p.p.d P :.:.:.:.:.$.$.$.$.$.$.$.$.$.$.$.$.$.$.$.$.$.$./ ^ / / ^ / / ",
":.,.:.:.,.,.:.:.,.,.,.:.3.,.,.<.:.:.:.:.:.:.:.:.:.:.:.4.:.:.%.j k C C J = % % g S k j p P $.:.&.:.$.$.$.$.$.$.$.$.$.$.$.$./ $.$./ $./ $./ ^ ^ ^ / / $.",
":.:.:.:.:.:.:.:.:.:.<.:.:.:.:.:.:.:.:.:.:.:.4.3.,.:.,.:.4.&.;.h d g s * * * * * * d d p P ,.:.:.$.:.$.$.$.$.$.$.$.$.$.$.$.$.$.$.$.$./ $.$./ $.$.^ ^ ^ ",
":.&.&.:.:.:.:.:.:.:.&.,.:.,.:.:.:.:.,.:.:.:.:.:.:.:.:.3.3.3.;.f a a i - - - * - - s s < 5 :.:.&.:.:.$.$.$.$.$.$.$.$./ $./ / $.$.$.$.$.$.$./ ^ / ^ / / ",
"&.:.:.:.:.:.:.:.:.:.:.,.:.,.:.,.:.:.:.:.:.:.:.:.:.:.:.3.:.:.-., $ $ < p p p < p s s s < 5 $.:.:.$.$.$.:.$.$.$.$.$.$.$.$.$.$.$.$./ $./ $.$.$.$./ / ^ / ",
"/ &.:.&.&.:.:.:.,.:.:.:.:.:.=.:.:.:.:.:.:.:.:.=.` K.I.I.U.I.I.( ( J.7 p g g p p p ) J.J.A.K.I.I.U.I.I.#.$.$.$.$.$.$./ / $./ $.$./ $.$.$./ / / / / $./ ",
":.:.&.:.:.:.:.:.:.:.:.:.<.:.,.:.:.:.:.4.:.:.:.:._ W.!.!.(.!.!.W.W.W.q 3 j g p 1 3 F.W.W.W.W.!.!.(.!.!.@.$.$.$.$.$.$.$.$.$./ $.$./ $./ $.$.$./ / $./ $.",
":.:.:.:.:.:.:.:.:.:.&.&.:.:.:.:.:.:.,.:.4.:.:.:.Y.^.!.!.(.!.W.!.!.!.W.D.3 a p q D.!.(.(.(.(.!.!.(.!.W.| $.$.$./ ^ $.$.$./ ^ / ^ $./ / / / ^ / $./ / $.",
":.&.:.:.,.:.:.:.,.:.<.:.:.:.:.:.,.:.,.:.:.:.:.:.Y.!.!.!.(.!.!.!.!.!.!.W.q 8 8 J.W.!.(.(.(.!.!.!.(.!.!.@.$.$.O./ ^ / ^ / / $.$.^ $.$./ / / $.^ ^ $.$.$.",
"$.:.&.:.:.:.:.:.:.:.:.:.:.,.:.:.:.:.:.:.:.:.:.:.Y.!.(.(.(.(.(.(.(.(.!.!.W.W.S.W.!.(.(.(.!.!.(.(.(.(.(.@.$.$.O.^ ^ ^ $.^ / $./ / / / $.^ / / $./ ^ ^ / ",
",.:.&.&.:.:.&.:.:.&.:.:.,.:.:.:.:.:.:.:.:.:.&.:._ W.(.(.(.!.W.!.(.(.(.^.W.W.S.W.^.(.(.(.!.W.!.(.(.!.W.| $.$.O.$.$.$.O.^ $./ $.$./ / / / ^ ^ ^ / / / ^ ",
":.:.:.:.:.&.:.&.&.:.:.&.:.:.:.=.:.:.:.:.:.:.:.:.` G.~.~.~.T.H.!.!.!.^.(.W.W.S.!.(.!.!.!.Q.G.~.~.~.P.G.| $.$.$.^ $./ $.O.$./ $./ / / ^ ^ ^ ^ ^ / / ^ ^ ",
":.&.:.&.&.:.&.&.&.&.:.:.:.&.:.:.&.&.&.&.&.:.&.:.e.G u.u.u.u.y.F.S.S.!.(.(.!.S.!.(.W.S.S._.u.u.u.u.u.u...$.$.O./ $.^ ^ ^ ^ ^ $.^ / ^ ^ / / ^ ^ ^ ^ / / ",
"&.&.&.:.&.&.&.:.&.:.:.:.&.&.:.&.:.:.:.&.:.:.:.:.r.A V Z H H u.F.S.S.!.(.!.!.S.!.(.W.W.S.).H V V H H H ..$.$.^ $.$./ ^ ^ / / ^ ^ $.^ ^ ^ / ^ ^ $.^ ^ $.",
":.&.&.&.:.:.&.&.&.&.&.&.$.^ &.&.&.:.:.&.&.&.&.:.e.A n B H A G F.S.S.!.(.!.!.S.!.(.!.!.S.).H M n H A A ..$.$.O.^ ^ / $.^ ^ $.$.^ ^ / ^ ^ ^ ^ / ^ ^ ^ ^ ",
"$.&.&.&.$.$.&.&.&.&.&.&.&.&.$.$.&.:.&.&.&.&.&.&.e.A n B H V m F.W.!.(.(.W.W.!.!.(.!.!.S.).H M n H Z M  .$.O.O.$.$.^ ^ ^ ^ ^ $.^ ^ ^ ^ ^ ^ ^ ^ ^ ^ ^ $.",
"/ &.&.&.&.&.&.&.&.&.&.&.&.&.:.&.&.&.&.&.&.&.&.&.e.A M V H B b F.W.(.(.(.W.L.!.!.(.!.!.S.).H B M H Z n  .^ $.$.^ ^ ^ ^ / ^ / / $.^ ^ $.$./ ^ ^ ^ ^ ^ ^ ",
"&.&.&.&.&.$.^ $.&.&.&.&.:.&.&.&.&.&.$.&.&.:.:.&.e.H H H H B b F.W.(.(.(.W.L.!.!.(.!.!.S.).H H H H Z n  .$.^ ^ $.^ ^ $.^ ^ ^ $.$.^ / $./ / ^ ^ ^ ^ ^ ^ ",
"$.$.$.&.$.$.&.:.&.:.:.&.&.&.:.&.&.&.$.&.&.:.$.&.e.H H H H B b P.!.(.(.(.W.L.!.!.(.!.!.S.).H H H H Z n  .^ ^ ^ ^ ^ ^ ^ ^ ^ ^ / $./ / ^ ^ ^ / / ^ ^ / / ",
"&.$./ $.$.$.&.&.&.$.$.O.:.&.&.&.&.:.:.:.&.&.&.&.e.H H H H B m Q.!.!.(.!.W.W.!.!.(.(./.S.).H H H H Z n  .$.$.^ ^ $.^ ^ ^ ^ ^ ^ ^ / ^ ^ ^ ^ ^ ^ ^ ^ ^ ^ ",
"/ / / / &./ &.&.&.&.:.&.$.&.:.&.:.:.&.&.&.&.&.&.e.H H H H A G F.L.L.L.L.!.!.(.!.!.(./.S.).H H H H A A  .^ / ^ / ^ $.^ ^ ^ ^ ^ ^ ^ ^ ^ ^ ^ ^ ^ ^ ^ ^ ^ ",
"^ / &./ &.&.&.&.$.&.&.&.&.$.&.$.&.&.^ &.:.:.:.:.e.H H A A A G N.B.B.B.B.R.R.R.R.R.!./.S.).H H H Z A H ..$.$.^ / ^ / ^ ^ ^ ^ ^ ^ / ^ ^ ^ ^ ! ^ / ^ ^ ^ ",
"^ $.$.&.$.$.&.&.&.&.&.&.&.$.$.&.&.&.&.:.:.&.&.&.e.H H Z n V G m.x.x.x.x.x.x.x.j.f.E./.S.).H H A n B H ..^ $.^ ^ $.$.^ ^ ^ ^ ^ ^ ^ ^ ^ ^ ^ ^ ^ ^ ^ ^ ^ ",
"^ ^ $.^ $.^ ^ O.+.&.&.&.&.$.$.$.^ &.&.&.&.&.&.&.q.B A Z n M M m.b.b.b.b.b.b.x.z.k.M.M.S.o.B A A n n B  .^ ^ ^ ^ ^ ^ ^ ^ ^ ^ ^ ^ ^ / ^ ^ ^ ^ ^ ^ ^ ^ ^ ",
"^ / ^ ^ / O.O.^ ^ &.&.&.^ &.$.$.&.&.O.&.&.&.&.$.' c t.w.c c m m.x.x.x.x.x.x.x.x.x.h.h.D.o.c t.t.c c c E ^ ^ / ^ ^ ^ ^ ^ ^ ^ ^ ^ Y R ^ ^ ^ ^ ^ / ^ R ^ ",
"&./ &.^ ^ ^ ^ O.^ ^ O.+.$.&./ &.&.&.&.O.&.&.&.&.$.$.$.$.$.$.X.l.x.x.x.x.x.x.x.x.x.x.x.x.t W $./ W W W ^ / / ^ ^ ^ ^ ^ ^ ^ ^ ^ ^ ^ Y Y ^ ^ ^ / ^ ^ / ^ ",
"^ ^ / ^ ^ / &./ $.+.O./ &.&.^ $.&.&.&.+.^ ^ ^ / ^ / $.O.$.O.O.l.b.b.b.b.b.b.b.b.b.b.b.v.t / / ^ / ^ ^ / ^ ^ ^ ^ ! ^ ^ ^ ! ^ Y ^ Y ^ ^ ^ ^ ^ ^ ^ R Y Y ",
"^ $.&.^ / / ^ ^ $.^ ^ &.^ &./ $./ / ^ $.^ $.^ ^ $.$.$.^ $.^ O.l.b.b.b.b.b.b.b.b.b.b.b.v.t ^ ^ ^ ^ ^ ^ ^ / ^ ^ ^ ^ ^ Y R ^ ^ ^ ! Y ! Y ^ ^ ! Y R R ^ ^ ",
"^ ^ ^ / $.&.$.$.O.^ &.^ +.O.&.O.+.&.O.$.O.^ / &.^ / ^ O.$.O.{ l.b.b.b.b.b.b.b.b.b.b.b.v.t ^ ^ ^ $.$.^ ^ ^ ^ ! ^ ^ Y ^ R Y Y ^ Y Y Y ! ^ Y R ! ^ ^ ! ! ",
"^ ^ / / $./ ^ ^ / ^ ^ ^ $.$.&.&.&.O.$.$.&.^ ^ ^ ^ $.^ $.$.^ { l.b.b.b.b.b.b.b.b.b.b.b.v.t ^ ^ ^ ^ ^ ^ ^ ^ ^ ^ ! ^ ^ ^ ^ ^ R ^ Y ^ Y ^ ! Y ^ ! Y R ^ ! ",
"^ / ^ / ^ ^ ^ ^ ^ ^ ^ ^ $.+.^ ^ $.&.^ ^ $.^ ^ / ^ $.O.^ ^ ^ { l.b.b.b.b.b.b.b.b.b.b.b.v.r ^ ^ ^ ^ ^ ^ ^ ^ ^ ^ ^ ^ ^ ^ ^ ^ ^ Y Y Y ^ U R Y Y ^ Y ^ ^ U ",
"^ / ^ ^ ^ ^ ^ ^ ^ ^ ^ ^ ^ +.&.^ ^ ^ O.^ $.^ ^ ^ ^ ^ ^ ^ ^ O.{ l.b.b.b.b.b.b.b.b.b.b.b.v.r ^ ^ ^ ^ ^ ^ ^ ^ ^ ^ ^ ^ ^ ! ^ ^ ^ ^ Y Y Y Y U Y Y Y Y ^ ! Y ",
"^ ^ / ^ ^ ^ ^ ^ ^ ^ ^ ^ ^ ^ ^ ^ ^ ^ ^ &.^ ^ ^ ^ ^ ^ ^ ^ ^ ^ O.l.x.x.x.x.x.b.x.x.x.x.x.x.t ^ ^ ^ ^ ^ ^ ^ ^ ^ ^ ^ ^ ^ ^ ^ ! ! ^ ^ R Y Y U ! U U U U Y U ",
"^ ^ ^ ^ ^ $.^ ^ O.^ ^ ^ ^ ^ ^ ^ ^ ^ ^ ^ ^ ^ ^ ^ ^ ^ ^ ^ ^ ^ { l.z.g.g.g.x.b.x.k.g.g.h.v.e ^ ^ ^ ^ ^ ^ ^ ^ ! ^ ! ^ ! ! ! ^ ^ ^ Y R Y Y Y Y U Y Y Y U U ",
"^ ^ ^ / ^ ^ &.^ ^ +.^ ^ ^ ^ ^ ^ ^ ^ ^ ^ ^ ^ ^ ^ ^ $.^ ^ ^ ^ { l.z.g.g.g.x.b.x.j.g.g.h.v.r ^ ^ ^ ^ ^ ^ ^ ^ ^ ! Y ! ^ Y ! ^ Y ! R ^ Y Y Y U Y ! Y Y U U ",
"/ / ^ ^ ^ ^ ^ ^ ^ ^ ^ ^ ^ ^ ^ ^ ^ ^ ^ ^ ^ ^ ^ ^ ^ ^ ^ O.^ ^ R l.x.x.x.x.x.b.x.x.x.x.x.x.e ! ^ ! ^ ^ ^ ! Y Y U U ! ! Y Y Y Y U Y R U U U U Y U U U Y Y ",
"^ ! ^ ^ ^ ^ ^ ^ $.^ ^ ^ ^ ^ ^ ^ ^ ^ ^ ^ ^ ^ ^ ^ ^ ^ ^ ^ ^ ^ R l.b.b.b.b.b.b.b.b.b.b.b.v.e ^ ^ ^ ^ ^ ^ ! ^ Y U ! ! ! ^ ^ ^ ^ ! Y Y U U U U U U U Y Y U ",
"^ ^ ^ ^ ^ ^ ^ ^ O.^ ^ ^ $.^ ^ ^ ^ ^ ^ ^ ^ ^ ^ ^ ^ ^ ^ ^ ^ ^ { l.b.b.b.b.b.b.b.b.b.b.b.v.e ^ ! ^ ^ ^ ^ ^ ^ ! ^ ^ ! ! ! R Y Y Y Y Y Y Y Y Y U U U U U Y ",
"^ ^ ^ ^ ^ $.^ ^ ^ ^ ^ ^ ^ ^ ^ ^ ^ ^ ^ O.^ ^ ~ ^ ^ ^ ^ ^ ^ ^ O.l.b.b.b.b.b.b.b.b.b.b.b.v.e ^ ^ ^ ! ^ ^ Y Y ^ ^ Y U ! Y U Y Y U Y Y U Y U I I U U U U U ",
"^ ^ ^ ^ ^ ^ ^ ^ ^ ^ ^ ^ ^ ^ ^ ^ ^ ^ ^ ^ ^ ^ Q ~ ^ ^ ^ ^ ^ ^ R l.b.b.b.b.b.b.b.b.b.b.b.v.r ^ ^ ^ ^ ^ ^ ^ ! ! Y ! Y Y Y ! U Y U Y U U U Y Y U U I U I U ",
"^ ^ ^ ^ ^ ^ ^ ^ ^ ^ ^ ^ ^ ^ ^ ^ ^ ^ ^ ! ^ ^ ^ ^ ^ ^ ^ ^ ^ ^ R l.c.c.c.c.c.c.c.c.c.c.c.x.r ^ ^ ^ Y ^ Y Y ! ^ ! ! U ! Y ^ Y U Y Y U U U U U U I U U I Y ",
"^ ^ ^ ^ ^ ^ ^ ^ ^ ^ ^ ^ ^ ^ ^ ^ ^ Q ^ ^ ^ ! ^ ^ ^ ^ ^ ^ ^ ^ R 9 V.V.V.V.V.V.V.V.V.V.V.V.w ! ! Y Y ! Y R ! ^ Y ! ! Y ^ U U Y Y Y Y Y Y Y U U I U U I I ",
"^ ^ ^ ^ ^ ^ ! ! ! ^ ^ ^ ^ ^ ^ ^ ^ ! ! ^ ! Q ! ! ^ ^ Q ^ ^ ^ R u y y y y y y y y y y y y ] U ! ! Q Y R U ! ! U U U ! Y Y U Y Y U U Y Y Y U U Y U U Y I ",
"^ ^ ^ ^ ^ ! ! ! ! Q ! ^ ^ ^ ^ ^ ^ ^ ^ ^ ^ ! ! ! ^ ^ ^ ^ ^ ^ R u y y y y y y y y y y y y ] ^ ^ Y ! Y U ! Q Y ! Y Y Y U U U U U U U U Y U Y U U U U U U ",
"! ^ ! ! ^ ! ^ ! ^ ^ ^ ^ ^ ^ ! ! ^ ! ^ ^ ^ ^ ^ ^ ^ ^ ^ ^ ^ ^ ^ [ ] ] ] ] ] ] ] ] ] ] ] ] } ^ ! ^ ! Y ! ! Y U Y Y Y U Y Y U U Y U U U U Y U U U U U U U ",
"^ ^ ! ^ ! ^ ^ ^ ! ^ ^ ^ ^ ^ ! ^ ^ ^ ! ^ ^ ^ ^ ^ ^ ^ ^ Q ^ ^ Q Q Q U ^ ^ ^ Q U ^ Q ! Y ! ^ ^ ! ^ U U U Y Y R U Y Y U Y Y U Y U U U U Y U U U U U I I I ",
"^ ^ ^ ! ! ^ ^ ^ ^ ^ ^ ^ ^ ^ ! ! ^ ^ ^ ^ ^ ! ^ ^ ^ ! ^ ^ Q Q ~ ^ ^ ^ ^ R ^ Q ^ ! ^ ! ^ ^ U U U U ^ ! R U Y U U U U U Y Y U U U U U U U I U U I U U I U ",
"! ^ ! ! ^ ^ ^ ^ ^ ^ ! ! ^ ! ^ ^ ^ ! ^ ! ! ^ ^ Q ^ ^ ~ ! Q ^ ^ Q Y Q ^ ! ! ^ ^ ^ ^ Y ! ^ ^ ! Y ! U Y Y U U U U U U U U U U U U Y U U U U Y U U U I U U ",
"^ ^ ^ ^ ^ ^ ^ ^ ! ! ^ ^ ^ ^ ! ! ^ ! ! ^ ^ ^ ! ! Q Q ^ ^ ^ ^ ^ ^ ^ ^ ~ ^ Q ! ! ! U ^ Q U U U U U U U U U U U U R U U U U U U U U U U U Y U I I U U I U ",
"^ ^ ^ ! ^ ^ ^ ^ ^ U ! ^ ^ ^ ^ ^ ^ ^ ^ ! ^ ^ ^ ^ ^ ^ ^ ^ ~ Q ~ Q Q Q ~ ^ ^ ^ Q U Q Y R ^ U U ! Q R U U U U Y U Y U U U I U U I U U U U I I I U U I U I ",
"^ ^ ^ ! ^ ^ ^ ^ ! ^ ^ ^ ^ ! ^ ^ ! ^ ^ ^ ! ! ^ ^ ^ ^ ^ Q ^ ^ ~ Q ^ Q ^ Q ^ ~ Q ! ^ U U Q Q ! U U U U U U U U U U U U U U U U U Y U U I U U I I U I U I ",
"! ! ^ ^ ^ ! ^ ! ! ! ! ! ^ U ^ ^ ^ ! ! ^ ^ ^ Q ^ ! ~ ^ ^ ^ ^ ^ ^ ~ ^ ^ ^ Q ^ ! ^ ^ ^ Q U Y U U Y U U U U U U U U I I U U U U U U Y U U U U I U U I U U ",
"^ ^ ^ ^ ^ ! ! ^ ^ Q Q ^ ! ! Q ! ^ ! ^ ^ ^ ! ^ ^ ^ ~ ^ Q Q ! Q ^ Q Q ~ ! ^ Q Q U U U Q ^ ^ Q U U U U Y U U U U I I I U U U U I U U U U U I I I U I U U ",
"^ ^ ! ! ! ! ^ ! ! ! ! Q ! ! ! ! ! ! Q ^ ^ ^ ! ! ^ ! U U U Q ! ^ ^ ^ ! U Q ! ^ U Q ! U U U U U U U U U U I U I I I U U U U U U U U U I I I I I I I I I ",
"! U ^ ! Q ! ! ! Q ! ! Q ! Q ! ! ! ^ ! ^ ! ! ! ! Q Q ! Q ^ Q Q ! Q ! T ! Q Q ! ! U U U Y U U U U U U U U U U U Y U U U U U U U I I I I I U I I I I I I "
};
