/* XPM */
static char *d4e1a2684cc142d0fb0b8718427afcac7zvub3ayhoKQqlMK[] = {
/* columns rows colors chars-per-pixel */
"75 75 213 2 ",
"   c #020204",
".  c #06050A",
"X  c #09070D",
"o  c #0A080E",
"O  c #070511",
"+  c #0A0611",
"@  c #0D0A13",
"#  c #0D061A",
"$  c #0E0A1B",
"%  c #110D16",
"&  c #11071E",
"*  c #120D1B",
"=  c #14111C",
"-  c #14250F",
";  c #162611",
":  c #192915",
">  c #1C2C1A",
",  c #1C3A13",
"<  c #203D17",
"1  c #213E1B",
"2  c #0E0924",
"3  c #130B23",
"4  c #150927",
"5  c #14052B",
"6  c #150B2C",
"7  c #1A0E2B",
"8  c #171221",
"9  c #1A1324",
"0  c #1C1826",
"q  c #16112A",
"w  c #1C152B",
"e  c #1E192C",
"r  c #170632",
"t  c #190634",
"y  c #160B32",
"u  c #1C0B34",
"i  c #18083A",
"p  c #1C0B3A",
"a  c #1C1235",
"s  c #1F1931",
"d  c #1D123B",
"f  c #21162D",
"g  c #21192E",
"h  c #220D3B",
"j  c #221535",
"k  c #241B33",
"l  c #281D36",
"z  c #24143B",
"x  c #261A3C",
"c  c #2A1E3B",
"v  c #1D2A28",
"b  c #222C2F",
"n  c #243626",
"m  c #2A2037",
"M  c #2C213C",
"N  c #2E3836",
"B  c #303935",
"V  c #353C3D",
"C  c #24401E",
"Z  c #2A561D",
"A  c #264121",
"S  c #294424",
"D  c #2D482A",
"F  c #2E5923",
"G  c #315B26",
"H  c #345D2A",
"J  c #2C4238",
"K  c #324638",
"L  c #395D3C",
"P  c #37602E",
"I  c #3C6F2C",
"U  c #396233",
"Y  c #42693D",
"T  c #1E0641",
"R  c #1B0D42",
"E  c #230C43",
"W  c #270947",
"Q  c #240A4B",
"!  c #2A0B4C",
"~  c #241242",
"^  c #2B1444",
"/  c #291C47",
"(  c #24124C",
")  c #2D134B",
"_  c #331E4D",
"`  c #2C0D53",
"'  c #310F54",
"]  c #231252",
"[  c #2C1551",
"{  c #2C1D53",
"}  c #2F105A",
"|  c #2C195C",
" . c #321355",
".. c #321A55",
"X. c #36155C",
"o. c #38185B",
"O. c #3C1B5A",
"+. c #2D2242",
"@. c #2B2F4B",
"#. c #312544",
"$. c #31234C",
"%. c #38284C",
"&. c #2D2052",
"*. c #392458",
"=. c #291261",
"-. c #2F136D",
";. c #3E1A64",
":. c #391968",
">. c #35077E",
",. c #39077E",
"<. c #37097E",
"1. c #3A1877",
"2. c #3B2567",
"3. c #421B63",
"4. c #421A6C",
"5. c #441C73",
"6. c #4A1E76",
"7. c #45197C",
"8. c #4B1D7B",
"9. c #511D7F",
"0. c #482B6A",
"q. c #492276",
"w. c #52257E",
"e. c #57307E",
"r. c #354547",
"t. c #3B5F46",
"y. c #374554",
"u. c #3C6043",
"i. c #40464E",
"p. c #424C53",
"a. c #446742",
"s. c #466552",
"d. c #52665D",
"f. c #4FB52D",
"g. c #52B72F",
"h. c #54BA2E",
"j. c #56BC32",
"k. c #59BE35",
"l. c #57BE38",
"z. c #5ABF39",
"x. c #57C034",
"c. c #59C136",
"v. c #5DC33B",
"b. c #61C43E",
"n. c #5FC740",
"m. c #5FC841",
"M. c #63C642",
"N. c #69C746",
"B. c #64C945",
"V. c #69C946",
"C. c #69C748",
"Z. c #67CB49",
"A. c #69CB4B",
"S. c #6ACC4B",
"D. c #6CCD4B",
"F. c #6BCC4D",
"G. c #6CCD4C",
"H. c #6ECD4E",
"J. c #70CE4E",
"K. c #6ECE51",
"L. c #70CE52",
"P. c #72CF55",
"I. c #370781",
"U. c #3B0783",
"Y. c #3D0984",
"T. c #3F0789",
"R. c #3E0A89",
"E. c #410A86",
"W. c #41078C",
"Q. c #430B8B",
"!. c #490E8E",
"~. c #4D1E81",
"^. c #46138A",
"/. c #4B118E",
"(. c #501D83",
"). c #460B92",
"_. c #4A0D94",
"`. c #4D0D9A",
"'. c #500D97",
"]. c #520E9C",
"[. c #4D1194",
"{. c #4E119A",
"}. c #521496",
"|. c #531C94",
" X c #53129C",
".X c #59159E",
"XX c #56199C",
"oX c #5A1A9D",
"OX c #532881",
"+X c #55208D",
"@X c #5A2496",
"#X c #530FA1",
"$X c #580FA6",
"%X c #5613A1",
"&X c #5A14A3",
"*X c #5718A3",
"=X c #5C1BA3",
"-X c #5E15A9",
";X c #5E1BA9",
":X c #611DA5",
">X c #6216AA",
",X c #631CAB",
"<X c #691CAE",
"1X c #671BB0",
"2X c #6A1CB3",
"3X c #711EBB",
"4X c #5F20A5",
"5X c #6422A5",
"6X c #6621AB",
"7X c #6924AD",
"8X c #6B2BA9",
"9X c #6B24B1",
"0X c #752AB8",
/* pixels */
"D.G.G.G.D.D.J.G.D.G.D.D.G.G.G.D.G.G.K.G.G.G.L.L.P.G.K.L.L.G.L.G.G.K.G.K.G.G.G.L.A.A.A.A.S.Z.A.Z.Z.Z.Z.Z.Z.A.Z.A.S.S.V.V.S.A.A.A.C.N.N.N.N.C.Z.Z.M.C.N.",
"G.G.G.G.G.G.D.D.G.D.G.G.S.G.G.D.G.K.G.G.D.G.K.G.K.L.L.K.L.K.G.G.G.S.F.S.G.F.G.A.A.A.A.A.Z.Z.Z.Z.Z.M.Z.A.A.A.A.Z.Z.M.B.Z.N.B.N.N.A.N.S.C.G.N.A.B.N.C.M.",
"G.S.G.G.G.G.K.G.S.G.G.S.K.S.G.S.G.G.K.F.K.K.K.G.S.F.F.F.F.F.G.K.K.F.G.S.G.G.F.A.A.A.A.Z.Z.B.Z.Z.Z.M.M.Z.Z.Z.Z.A.B.B.B.B.B.N.N.M.B.C.Z.A.N.N.N.N.A.N.B.",
"G.G.S.S.S.A.S.A.G.G.G.G.G.G.I ; b @.b B V N i.N ; : : > n N > V B ; ; ; > > B > N V : - - > : B > n V > - v @.b N V N i.a.B.B.M.B.Z.B.M.N.N.B.N.N.B.N.",
"A.A.A.A.S.S.A.S.G.G.G.K.K.S.H g M d z c z 3./ . X l % . k @ X k     k w X w 8 . e @   9 g X = 0 . 8 % O g +.d z c ~ 6.$.1 B.B.B.B.M.N.N.M.C.C.N.N.N.N.",
"S.A.A.A.F.F.S.A.A.A.S.G.S.G.s.2.d 1.+X5.w.. 7.6 l 8 = . . .   .   = e % % . .   .   @ l % @ . X     . i 2.p 1.+X5.6.O 5.K B.Z.M.M.B.B.B.B.M.M.B.N.M.B.",
"S.S.S.S.S.S.S.F.F.F.G.G.A.A.a.w.4.q y ! 0.j p 6 % X % % . 8 =     @ @ @ = X @ k     @ @ X = o   k .   7 w.q.a 7 E 0.j 5 K B.M.M.M.M.N.B.N.B.M.M.N.N.M.",
"A.S.G.S.S.S.G.G.S.Z.A.A.A.F.s.z c ..5XE w O.k 6 X 9 f e o o   8 @ X % f k = . X @ % . @ k g 9   X X 8 z j x $.5XQ w O.x K M.M.M.M.M.M.N.M.M.M.M.M.M.B.",
"F.F.F.S.S.A.A.A.G.G.F.Z.F.F.L _ { 0X&./ @Xw z ) % g % 8 g   @ * @ 0 g = % l o . 8 @ w 8 8 $ k @   = @ 4 _ { 0XO./ +Xq a r.M.B.M.M.M.M.B.M.M.M.b.M.M.M.",
"A.Z.S.Z.S.F.F.S.S.G.G.G.F.G.u.-.@X4.] $ j & X./ @     @ @ X o X % *   . . % X o o @ 8 .   . % X X o   6 -.|.4.] & f 3 ;.p.M.M.M.M.M.M.M.M.b.b.b.M.M.b.",
"A.A.F.S.S.F.S.F.F.F.S.S.F.F.H c a -.$ c e.q ( y 9 % o X 8 %.8 0 @ @ 8 X X @ #.l 8 * @ w o X @ M c 3 8 X c d 1.$ c e.q ] r.M.M.M.M.M.b.M.M.b.M.b.b.b.M.",
"S.Z.A.Z.F.F.G.S.F.F.S.F.F.G.Y s _ 7 * y 5.1.q * k X   @ @ @   o @ e %   . @ % .   % 8 w   . @ * .   = 8 j ) 7 % 7 5.-.* A M.M.M.M.M.M.M.b.b.b.M.b.M.b.",
"Z.A.Z.A.G.F.A.A.A.F.G.S.A.F.H o X.X e ~ a $ R # 7 # # a 3 3 & # # 3 & & 3 w 3 & # # & 3 3 4 w & & + + # @ ;.. e d 7 # R 1 B.M.M.M.M.M.b.M.M.b.v.b.M.b.",
"Z.Z.F.Z.S.S.F.F.A.F.F.G.F.Z.F . X X . g = $ l  .[.)._.`.T.*X2X X).`.`.T. X2X*X).`.`.T. X3X*XQ. X`.W._.X.  . . . 8 w @ M K M.M.M.M.M.M.M.M.b.b.M.b.M.M.",
"Z.A.F.S.F.S.F.A.F.S.A.A.F.F.G l m = = 8 o X % t !.:X_. X}.Y.Q.Q.;X`.[..XU.!.Q.,X_.[.%XU.!.E.;X_.[.oXU.T 9 +.= @ w @ X 8 , M.M.B.M.M.M.M.M.b.M.b.M.b.b.",
"A.Z.Z.S.Z.A.Z.Z.A.S.A.S.A.Z.H e @ o     @     r ,XY.Q.Y.=X`._.,XE.R.Y.XX X).,XE.E.Y.XX}.).,XQ.Y.R.}. XQ k % % .   .   . , b.b.M.M.M.M.M.b.B.B.b.M.b.M.",
"Z.A.A.Z.Z.Z.A.A.S.Z.Z.Z.F.F.P @ @ g 8   k X   t `.>.*X&XY.`.Q.`.U.XX;XY.`.Q._.U. X>XY.`.Q._.U.'.-XY.`.` @ X 9 8   l %   , M.M.M.M.B.M.M.M.M.b.b.b.M.M.",
"A.A.Z.Z.F.S.Z.Z.Z.Z.Z.Z.F.F.H % k % % X   o k p ;X].-X,XY.).Q.=X X&X6XY._.Q.*X X.X2XU._.Q.XX X#X,XR.).! @ k 8 = @ . . g A B.M.M.M.M.M.M.M.M.b.b.v.v.b.",
"Z.Z.Z.Z.Z.S.F.S.Z.F.S.S.Z.A.a.% @ @ g @   @ @ ^ Q.%X XQ.7X].,XQ.*X].^.5X%X,XQ..X].!.5X&X,X!. X].[.:X&X6.= 8 @ e 9   @ @ C M.b.M.M.M.M.B.M.M.M.M.b.b.b.",
"Z.Z.A.Z.A.Z.Z.S.S.Z.Z.A.A.S.H .     o @ 8 % X  .:X)._.*X/.Y.].6XQ._. X/.U.].9XQ.{. X}.U._.,XQ.{.XX}.U.Q .     X X % @ . D M.M.M.B.b.M.M.b.M.v.M.v.b.v.",
"Z.Z.A.Z.Z.Z.Z.Z.B.Z.Z.A.A.Z.H M @ o @ l k @ w ! ].).). XU._.1X X)._. XY.).<X&X)._. XQ.Q.1X&XQ.`.[.Q.Q.' k % X @ f +.% e C M.M.M.M.M.M.M.b.v.b.b.v.b.b.",
"Z.Z.Z.Z.A.Z.Z.Z.A.Z.A.Z.F.A.U = . . @ @ X   o E Q.*X X*XQ.).&XQ..X X%XQ.!.&XQ. X%X XQ.Q.%X!. X%X X).E.X.0   . @ @ @   X C b.M.M.b.M.b.M.b.v.v.v.b.b.M.",
"Z.Z.Z.Z.Z.Z.Z.Z.Z.Z.S.Z.Z.Z.H   .   9 % @   @ p =X/.Y.Y.6X!.Q.*X[.Y.U.5X!.R..X}.Y.U.:X[.Q.XXXXY.U.:X_.Q . .   = @ @   X C M.M.M.M.M.b.M.M.b.M.M.v.v.v.",
"Z.B.Z.Z.Z.Z.Z.Z.Z.Z.Z.A.Z.A.G . @ X . k @ % k E ].>.].`.Y.#XQ.{.,.`. XE. X_.%XU._. XY. X_.].U.). XU.`.!   X X . 0 9 @ M D b.M.M.M.M.M.M.M.b.v.b.v.b.b.",
"B.Z.Z.Z.Z.Z.Z.Z.Z.Z.Z.A.Z.A.G m c = = 8 @ X @ r -XU.-X,XQ.`.Q.=XT.%X<XE.`.Q.=XW. X2XR.`.Q.%X).`.1XQ.`.Q 9 M = @ w @ X 8 , M.M.M.b.M.b.M.M.M.M.b.v.v.b.",
"b.B.Z.B.B.Z.Z.Z.A.Z.Z.Z.Z.Z.H 9 @ X     o .   t [.,X>XXX[.].}.Q.,X-X=X_. X}.Q.6X&X=X/.%X XQ.6X-X=XQ.%X! e % % .   X     , b.M.M.b.M.M.M.b.b.b.b.b.M.b.",
"Z.Z.B.Z.Z.Z.Z.Z.Z.Z.Z.Z.S.Z.P @ @ g 9   g X   ^ }.Q.W.[.6XQ.&XoXQ.Q./.6XQ.%X=XQ.).!.7X).&X=XE.).).7XQ.` @ O 0 8 . k @   , b.M.M.b.M.b.M.M.M.b.b.M.b.M.",
"Z.Z.Z.Z.Z.A.Z.Z.Z.Z.B.B.Z.Z.G % l @ % X   @ l ) %X{. X%XU.Y.&X&X`. X&XU.Y.&X&X_.%X%XE.U.%X&X_.*X XQ.U.! o c * % o   . l A v.b.v.M.b.b.b.b.v.b.M.b.b.M.",
"Z.B.Z.Z.A.Z.Z.Z.A.Z.S.Z.Z.Z.a.@ @ @ e @   @ o ) _.)._._.U. X2X[.).`._.U. X<X XQ.`._.Y.`.2X XQ.[._.Y.).q.= = @ 0 8   @ @ C M.M.v.M.M.b.b.b.M.v.v.M.M.M.",
"M.Z.B.Z.Z.Z.Z.Z.Z.Z.Z.Z.Z.A.G .     o @ 9 % X ( [.=X_.[.*XY.Q._.=X!._.=XY.Q.!.:X!.[.:XY.R.Q.:X).[.;XY.Q .     . X * % . D M.b.b.b.b.M.v.v.b.M.b.v.v.b.",
"A.Z.B.B.B.B.B.Z.Z.B.Z.Z.A.Z.P #.@ o @ k w + e p =XY.Q.Y.}.]._.;XU.Q.T.}. X_.;XE.Q.Q.}. X_.=XE.Q.Q./. X! k % X @ w M # w C b.M.M.b.b.b.b.v.v.v.b.b.b.v.",
"Z.Z.Z.Z.Z.B.Z.B.B.Z.Z.B.Z.Z.U = . . @ @ X   o t `.I.-X-XY.].Q.`.I.%X,XY.#XQ.`.U.].>XY.].Q.`.U.{.>XY.`. .w   . @ @ O   X C b.M.b.v.v.v.v.v.v.v.b.M.v.v.",
"Z.B.Z.B.B.Z.B.B.B.B.B.Z.Z.B.H   . . = % @   % R =X%X-X,XR._.Q.*X%X&X6XE._.Q. X%X&X6XY.).Q.}.&X%X<XY._.!   X   % % %   @ S v.M.v.b.v.v.b.v.v.v.v.v.b.v.",
"B.B.B.Z.B.B.B.Z.B.B.Z.Z.Z.Z.F . @ o . k @ * k ) !. X`.Q.9X].,XQ. X`.Q.9X*X,X!.[.].E.7X X,X[.[.].!.6X X` . @ o . g % @ c A b.v.v.M.v.v.v.v.v.v.M.v.v.M.",
"Z.B.B.B.Z.Z.B.B.B.B.Z.B.M.v.F m k = = * X . @ E :X!.`.=XE.Y.].,X).`.*X!.I.].9XQ.{.*X/.U._.<XQ.{.*X[.U.T g c 8 @ = @ . % , M.b.v.v.b.v.v.v.v.b.v.v.v.v.",
"M.B.B.B.M.M.B.B.B.B.B.B.Z.B.G 9 @ .     @     W ].).!. XU.`.2X X!._. XU._.<X%XQ._.{.Y.!.2X&XQ.`.`.R.Q. .9 @ X     @ .   , v.M.v.v.v.v.v.v.v.v.v.v.v.M.",
"b.B.B.B.B.B.B.B.B.B.B.B.Z.Z.P @ % k 0   e . . h Q.%X X*XQ.!.*XE.%X X X!.Q. XQ..X%X*X!.Q. XQ.%X*X X[.R.` @ @ k w . 0 X . , b.b.n.v.v.M.M.b.v.v.v.v.v.v.",
"B.B.B.B.B.M.v.M.B.B.B.B.Z.B.H * l @ % o   @ k h ,XE.Q.U.5X_.Q.=X!.Y.U.:X[.Q.;X/.Y.U.:X[.Q.*X/.Y.U.oX}.` @ M % @ @   o l A v.M.M.v.b.M.v.b.v.v.v.v.v.v.",
"M.M.M.B.M.M.B.Z.B.Z.Z.B.B.B.Y @ @ X e @   @ X p `.,. X XY.`.Q.`.>. X*XY.].Q.`.,.`.%XY.].).`.U._.%XU.`.:.% X . 0 %   @ o 1 v.b.b.b.v.v.v.v.b.b.v.v.b.b.",
"B.M.b.M.M.M.B.B.B.M.M.n.Z.B.G .     o @ 9 % X ) :XW.&X,XQ.).Q.;XQ. X,XE.`.Q.;XQ.#X2XE.`.Q.=X).].2XQ._.Q .   . . @ e % O D v.v.v.v.v.v.v.v.v.v.v.v.v.v.",
"b.b.b.b.B.b.B.B.B.B.Z.B.M.B.H #.@ o @ l 0 O f p !.,X,X}.}.%X XQ.,X-XXX}.&XXXE.6X-XXX[.&X%XE.6X&XXX[.*X' M = X @ g g X g 1 v.v.v.v.v.v.v.v.v.v.v.v.v.v.",
"v.b.B.b.B.B.B.B.M.M.B.B.B.M.H = . . % @ X   X ! oXQ.Q.}.=XW.%X;XQ.).[.:XT. X,XQ.).[.5XW. X:XR.)._.6XQ.! 9   . = o o   . < v.v.v.b.v.v.v.v.c.v.b.v.v.v.",
"v.M.M.B.M.M.B.B.B.M.B.B.B.M.G   . . 8 = %   8  .#X_.{.].<.Q.-X&X`. X%XU.R.-X&X_. X XY.Y.-X&X)..X XE.U.'   X   = = =   = D v.v.v.v.v.v.v.v.v.v.v.v.v.v.",
"v.v.M.v.M.v.v.n.m.B.B.B.B.M.Z X % o X k o * k ) !.`. X].U.{.,X!.`. X].Y.`.,X[.). X`.Q._.2X_._.%X`.Q.Q.' . = @ . g @ @ l C v.v.v.v.b.v.v.v.v.v.v.v.v.v.",
"v.b.v.v.M.n.n.v.v.B.B.B.M.B.F m k * = % X . @ r XX XQ.!.:XU.Q.}.XXQ.Q.:XY.R._.;XQ.Q.:XY.Y.!.;X!.Q.6XE.T g c 8 @ = o   % , v.v.v.k.l.v.v.v.v.v.v.v.z.v.",
"B.b.B.v.v.v.v.n.v.n.m.m.M.B.G 9 @ .     % .   t &XU.).Q.!. X_.=XU.!.Q.!. X_.=XU.Q.Q.Q.*X_.%XY.Q.).Q. X! 8 @ o     % X   , v.v.v.v.k.k.l.v.v.b.v.v.b.v.",
"v.v.b.v.v.b.B.b.M.m.n.b.B.M.G @ * k w   0 . . t %XU.=X,XY.].Q. XU.%X,XE.`.Q. XU. X1XR.].).].Y. X<XY.`.` @ @ k g . 9 X . , v.k.v.k.v.v.v.v.v.v.v.l.k.k.",
"v.M.B.v.b.b.v.v.M.v.v.M.v.B.H % l @ % o   @ l p XX&X>X:XQ.).Q.}.-X&X6XR._.).[.:X&X6XQ._.Q.[.,X$X,XQ.).` @ M @ @ $   o k A v.v.c.k.c.k.v.v.c.k.z.z.v.v.",
"v.v.v.b.M.B.M.v.n.v.B.v.m.n.Y O X o e o   o X ) /.{._.^.7X].<X/.[._.Q.7X].,X[.[.`.Q.7X#X,X}.[.`.Q.7X X4.@ X X w $   o X 1 c.v.c.k.k.c.v.k.l.c.v.v.c.c.",
"v.v.b.b.M.M.v.v.b.v.v.v.M.M.F X .   o % g % @  .:X_.`.*XY.U.].,X). X&XE.U.].,X). X=XQ.U.`.<X).%X*X[.<.Q X   . . @ g = @ S v.v.c.v.k.v.c.k.v.c.k.l.v.c.",
"v.b.v.b.v.v.v.v.v.v.v.v.M.m.H #.@ X @ l 0 X g !  XQ.!.`.U. X2X XQ._.`.U.{.2X XQ._.`.U._.2X&XQ._._.E.).X.M * X @ g g X g 1 v.k.k.k.v.k.l.k.k.v.k.v.v.j.",
"v.b.v.v.v.v.v.v.v.v.v.v.v.m.P = . X % @ @   . p Q.=X X X!.R.{.Q.=X X X[.Y.{.Q.=X X X}.Y.`.E.=X X X XY.! =   . = o @     , v.v.c.k.k.k.j.k.k.k.k.v.c.k.",
"v.v.v.v.v.v.v.v.v.v.v.v.v.v.F   . . = % @   = E ,XE.R.U.:X[.Q.,XQ.E.U.;X[.).=X!.R.U.oX X).=X!.Y.Y.oX XQ   .   % % %   % S c.v.v.z.k.k.k.c.k.j.k.j.k.j.",
"v.v.v.v.v.M.v.v.n.v.v.v.v.v.Z X * o X k X = k i _.<. X*XY.].Q.`.,. X&XY.`.W.`.U.`.&XY.`.Q._.U.`.-XU.`.Q . 8 o . k @ % l 1 v.v.k.l.k.k.k.k.j.k.k.k.j.j.",
"v.v.v.v.v.v.B.v.v.m.v.v.v.v.Z c k = @ % o . @ r ;X).&X,XR._.Q.;X).%X,XQ._.Q.;X_. X,XY._.Q.*X_.].<XQ.).Q g k 8 @ % o   @ , k.c.v.v.k.k.k.j.k.c.k.k.j.j.",
"b.b.v.v.v.v.v.v.v.v.v.v.v.v.F 8 @ .     % .   u Q.,X-X}.=X%X*XE.,X&X}.oX%X&XE.6X&X}.XX*X=XE.,X%X}.}.%X` 8 @ X     % X   , k.k.k.l.j.k.k.j.k.j.j.k.k.k.",
"v.c.v.v.v.v.v.v.M.v.v.v.v.v.H @ = l 0   w . X W *XQ.Q.}.oXW.&X,XQ.).[.oXR. X,XR.).[.=XU.].:XQ.).`.4XY.Q @ % k k . 9 X o , v.c.k.k.j.j.j.k.j.j.j.k.k.k.",
"v.v.v.v.v.v.v.v.v.v.v.v.n.v.H = k @ = @   @ g ) %X_.`. XU._.<X%X_.`. XU.!.,X&X_. X XY.R.,X&X). X].Q.Y.X.@ M @ $ $   o k A k.k.k.k.k.k.k.k.j.j.j.j.j.k.",
"v.v.v.v.v.M.v.v.v.v.v.v.v.v.Y o X X 0 X   X X ) E. X X XU.`.;X!. X*X XE._.-X!.[.*X XQ.!.,X_.`..X XQ.Q.5.@   . w @   X X 1 k.j.k.k.j.k.j.h.h.j.j.k.j.k.",
"v.v.v.v.v.v.v.v.v.v.v.v.v.v.F @ . . o * g % @ E %X}.Y.E.6XR.Y. X}.E.Y.6XE.Y.}.oXE.U.6XQ.R.[.*XE.Y.6X!.E @ . . X % k * @ S k.k.k.j.k.j.k.k.j.j.h.j.h.j.",
"v.v.v.v.v.v.v.v.v.v.v.v.v.v.H #.@ X @ k 8 X g p %X<._.).Q. X_.%XU._._.Q.*X`.%XU.!._.E.*X_.&XU.)._.E. X} M % . @ g 0 . g 1 k.k.k.j.j.j.j.j.j.h.j.j.h.k.",
"v.v.v.v.v.v.v.v.v.v.v.v.v.v.G % . o % o o   . t %XR.-X1XQ.`.Q.&XU.&X2XQ.`.Q.*XR. X2XE.`.).*XQ. X2XE._.! =   . = X o     , k.k.k.k.k.k.k.k.k.h.k.h.h.h.",
"v.v.v.v.v.v.c.c.c.v.v.v.v.v.F   2 # 8 9 8 . 0 7 h r u h p ) 5 *.[ t h 4 r r o.h [ O.r 5 5 h u  .^ h ..4   $ 5 * 9 e $ k K k.k.j.j.k.k.k.k.j.k.j.j.k.h.",
"v.v.v.v.v.c.c.c.c.x.c.v.v.v.Z % e ] a / h 0.x X O k % . l + @ l   . k 9 . g % . k .   8 f o * 0 . 9 =   % k ( d $.7 OX#., j.j.j.k.j.k.j.k.k.j.j.j.j.j.",
"c.v.c.c.v.c.v.c.v.v.v.v.v.v.t.*.x ..;.z q.3 1.O m = = X . .   X   9 w * $ . X   .   @ c % % . .       y *.d | 8.) 6.& 7.J j.k.j.j.j.j.k.j.j.k.j.j.j.j.",
"v.v.c.v.c.v.v.v.c.v.v.v.v.v.F q.:.=.4.8X_ # :.* * o @ X   = %     % @ @ @ . @ 0     @ % o @ .   e .   O 8.4.( X.(.*.3 u B k.j.j.j.j.k.k.k.j.k.k.h.h.h.",
"v.v.v.c.c.v.v.v.v.v.v.v.v.v.d...z *.@X5 f 3.9 p o 8 l l . @   = X o & k l % X X @ @ X @ g k 0   @ X 8 z ) z $.@Xp w 3.f r.j.j.j.j.k.j.h.j.j.h.j.k.h.j.",
"c.v.c.c.v.v.v.v.v.v.c.c.v.c.F x { @X0.| 4.j x z % k % 9 w   @ = % 0 k * * k   . 8 @ 0 9 8 % k @   = @ $ c &.7X*.{ ~.e a K k.j.k.j.j.k.j.k.j.j.j.h.j.j.",
"v.v.v.v.v.v.v.v.c.c.v.v.v.v.t.1.4.9.2.@ ^ # ;...@   . * o . o X % =   . X = X . o o 9 . . X = . X o . a 1.8.8.:.# h # ;.p.j.j.j.j.j.j.k.j.h.h.j.j.h.j.",
"v.v.v.c.v.v.v.v.v.k.x.v.v.v.F j ( :.2 M 0.q [ p 8 @ X X * %.9 9 @ % = o . % %.k 8 @ o 0 o X @ m m = = . e ] ^.3 k 0.a ] y.j.h.j.j.j.j.h.h.h.j.j.h.j.h.",
"v.v.v.x.v.v.v.v.c.v.v.v.v.v.U +.^ a $ j ~.=.a * l + . @ * =   = @ k *   X $ = . O % 8 e   . @ 8 X . 9 % +.z ~ & e ~.=.q n k.j.k.j.j.h.j.j.h.h.j.h.j.h.",
"c.c.v.v.v.c.v.c.c.c.c.c.v.j.F % 4.+ e | 6 y 2 X @ . . 8 @ o       @   . @ $ X       o o o @ = X .     X $ 6.X e ~ u 3 i , j.j.j.k.j.j.j.j.h.k.j.h.j.j.",
"v.v.v.v.v.c.c.v.v.x.x.v.v.v.j.k.l.k.l.l.l.k.l.k.k.k.k.k.k.k.k.l.k.k.k.k.l.j.k.j.j.k.k.l.l.k.j.j.j.j.j.j.j.j.j.f.g.g.j.j.j.j.h.j.j.j.j.j.h.h.h.j.h.j.j.",
"v.v.c.c.c.c.v.c.c.c.c.x.c.c.c.c.c.c.c.v.v.v.x.x.v.c.k.k.k.x.c.v.v.c.x.k.x.c.v.k.x.x.k.k.k.k.k.j.j.k.j.k.h.j.h.h.h.j.j.j.j.j.j.j.j.j.h.h.h.h.h.h.h.h.h.",
"c.j.v.c.x.c.x.c.x.c.c.x.c.x.c.c.c.v.c.v.c.c.c.x.x.x.c.c.v.x.x.c.x.x.l.c.x.x.x.c.k.k.k.k.j.j.k.j.j.j.j.j.k.j.h.k.j.k.k.j.j.j.j.h.h.h.h.h.j.h.h.h.h.h.h."
};
